<?xml version="1.0" encoding="UTF-8"?>
<svg xmlns="http://www.w3.org/2000/svg" viewBox="0 0 256 256">
    <path fill="#5382A1" d="M120.195 39.265c-1.94-.297-3.328 1.42-3.328 1.42s.68-2.817 8.153-3.056c0 0-2.708.238-4.825 1.636zm6.46-.773s-1.064 1.123-.238 1.54c0 0 3.21-.596 4.333-1.42 1.123-.832-4.095-.12-4.095-.12zm7.703 16.036s.477-1.42-6.222-3.328c0 0 4.273.952 6.222 2.47v.858zm-15.407-8.034s-8.51.238-3.327 4.57c0 0 1.897-3.507 3.327-4.57zm3.925 18.802s-.358 2.232 2.708 1.242c0 0 .716-2.708-2.708-1.242zm4.572-20.132s1.42 1.42 2.112.358c.693-1.064-2.112-.358-2.112-.358zm-10.743 4.451s6.102-2.351 3.686-4.69c0 0-1.718 3.507-3.686 4.69zm-6.46 2.53s4.69-2.113 2.708-3.746c0 0-1.002 2.589-2.708 3.746zm23.977 6.554s.952-1.182-2.708-3.746c0 0 3.15 1.48 2.708 3.746zm6.937-4.74s-1.658 1.123.357 2.232c0 0 2.232-1.301-.357-2.232zm-3.15-18.028s-2.708 1.002-1.658 1.658c1.063.654 1.658-1.658 1.658-1.658zm-6.46 1.539s2.708-.536 0-1.658c0 0-1.54 1.182 0 1.658zm48.729 34.422c28.907 18.862 18.267 37.01 7.285 34.6-2.59-.596-3.746-1.122-3.746-1.122s.952.357 2.232.833c16.513 5.523 29.203-24.096-7.047-34.481 0-.001.477.12 1.276.17zm-10.622 48.193c27.785 1.777 35.293-9.632 35.293-9.632s-5.642 17.26-36.118 9.513c-23.621-6.102-44.15-.952-44.15-.952s7.642-3.328 44.975 1.07zm-45.273-4.154c-2.064.487-4.207.982-6.354 1.486l1.79.238c1.514-.574 3.05-1.147 4.564-1.724zm-18.401 5.047l.66.119c2.196-.588 4.397-1.17 6.59-1.752l-1.79-.238a244.009 244.009 0 0 1-5.46 1.871zm167.37-25.1c6.283 39.478-111.082 50.66-159.87 35.054 58.908 24.87 188.419-1.658 159.87-35.054zM82.827 163.13c-6.32 1.385-12.587 2.814-18.802 4.285l2.362.314c5.446-1.535 10.92-3.048 16.44-4.6v.001zm140.84-76.546c10.266 23.74-27.427 45.75-27.427 45.75s43.257-22.26 14.827-50.21c-26.416-25.94-46.62-38.849-62.89-53.26 3.925 8.51 24.423 25.344 75.49 57.72zm-158.87 89.677c-3.48.936-6.94 1.89-10.375 2.863l2.033.267c2.754-.773 5.522-1.536 8.301-2.29l.04-.84zm-21.452 6.397c-2.832.81-5.65 1.629-8.446 2.459l2.046.27c2.112-.575 4.23-1.146 6.355-1.714l.045-.015zm-19.305 6.903s1.444-.297 3.925-.892l-2.124-.28c-.608.395-1.214.79-1.801 1.172zm31.085-10.608a668.838 668.838 0 0 0-8.868 2.526l1.893.25c2.311-.654 4.632-1.304 6.962-1.95l.013-.826zm121.714-90.272c7.88-16.573-23.68-32.942-71.042-18.743 26.654-2.47 83.636 10.384 71.042 18.743zm-104.04 84.289l-13.787 4.073 1.79.238c3.942-1.155 7.91-2.296 11.902-3.423l.095-.888zm75.64-42.557c22.023-31.323-6.82-65.685-29.977-60.22 11.574 2.232 37.414 36.894 29.977 60.22zM123.663 35.4c34.243-19.695 60.778-.833 36.713 3.686 0 0 1.539-.357 3.507-.357 14.232-.357 36.356 10.921 19.992 23.264 8.153-18.862-48.79-27.964-60.212-26.593zm-76.07 169.04c-.363.126-.728.252-1.091.378l2.275.3c-.396-.226-.792-.452-1.184-.677zm209.234-108.14c4 47.87-134.9 50.42-183.75 45.63 39.24 8.39 187.26 6.46 183.75-45.63zM51.743 192.631c-2.675.754-5.338 1.517-7.99 2.287l2.124.28c1.947-.473 3.901-.942 5.866-1.407v-1.16zm194.684-82.297c6.342 60.55-171.26 77.93-220.94 57.72 82.74 33.38 228.58-2.948 220.94-57.72z"/>
</svg>
