<?xml version="1.0" encoding="UTF-8"?>
<svg version="1.1" xmlns="http://www.w3.org/2000/svg" width="348" height="419">
<path d="M0 0 C0 0.66 0 1.32 0 2 C-0.95519531 1.96519531 -1.91039063 1.93039062 -2.89453125 1.89453125 C-13.54336573 1.6715746 -23.30555284 2.13596277 -32 9 C-33.22514289 10.03876234 -33.22514289 10.03876234 -33.4375 12.25 C-32.9106165 15.56183914 -31.72786568 16.77624327 -29.06640625 18.74609375 C-14.10198121 27.82658607 4.93993633 29.91912283 22 32 C23.26360352 32.15879639 23.26360352 32.15879639 24.55273438 32.32080078 C72.09123194 37.98057285 141.87580836 41.21038175 183 12.9375 C186.15659948 9.87954426 187.87541397 7.3239342 188.29296875 2.88671875 C188.25816406 1.83097656 188.22335937 0.77523438 188.1875 -0.3125 C188.16042969 -1.38113281 188.13335937 -2.44976562 188.10546875 -3.55078125 C188.07066406 -4.35902344 188.03585937 -5.16726563 188 -6 C193.93050998 -4.55353415 198.92659685 -1.34775393 202.17578125 3.8984375 C203.97082242 8.47536711 203.92297904 13.60025449 202.16015625 18.18359375 C193.49337561 33.15348758 175.24847161 39.30228658 159.45703125 43.625 C132.96390214 50.47692161 105.58239959 54.1058205 78.22265625 54.203125 C76.93604599 54.20882507 75.64943573 54.21452515 74.32383728 54.22039795 C71.60854715 54.23081573 68.89328572 54.23671504 66.17797852 54.24023438 C63.46462187 54.24456971 60.75159208 54.25828496 58.03833008 54.28125 C-37.68824515 55.02961631 -37.68824515 55.02961631 -64.73828125 28.4765625 C-69.24425382 23.20331905 -70.84382518 18.77749004 -70.58203125 11.71875 C-69.30514339 5.75422684 -64.77338953 2.45095507 -60.25 -1.25 C-40.91353705 -11.66194159 -18.0450834 -12.73599938 0 0 Z " fill="#1464C0" transform="translate(90,326)"/>
<path d="M0 0 C0.66 0 1.32 0 2 0 C10.93736889 16.72837692 16.03454255 31.56624637 11.1015625 50.67578125 C4.73188381 69.89775489 -9.48042883 85.80160072 -23.73828125 99.74609375 C-26.33037137 102.3292302 -28.71927636 105.03112967 -31.08984375 107.81640625 C-33.02153701 110.02462002 -35.03083821 112.14765254 -37.05102539 114.2746582 C-45.92819752 123.69627695 -54.46202502 134.22780125 -54.2434082 147.80249023 C-53.79299636 151.8688463 -52.21756514 155.44845027 -50.625 159.1875 C-50.26776855 160.04899658 -49.91053711 160.91049316 -49.54248047 161.7980957 C-42.79307009 177.84788614 -35.13190406 193.17522809 -26 208 C-26.66 208.33 -27.32 208.66 -28 209 C-36.80205596 202.45524549 -45.07509911 195.59048407 -53 188 C-53.50418457 187.52304688 -54.00836914 187.04609375 -54.52783203 186.5546875 C-68.51673576 173.27166625 -83.57391718 156.26729357 -85.3359375 136.16796875 C-85.51133412 118.29505309 -78.02063515 107.69904842 -66 95 C-65.13568359 94.07380859 -65.13568359 94.07380859 -64.25390625 93.12890625 C-60.16034701 88.87827999 -55.66869348 85.20786087 -51.078125 81.5078125 C-47.12944492 78.29074066 -43.26581228 74.98167918 -39.41064453 71.65356445 C-36.42140622 69.07328129 -33.42157067 66.51017114 -30.3828125 63.98828125 C-16.15228535 52.12498854 0.47668868 37.2936464 2.30859375 17.69921875 C2.43071592 11.47098803 1.86343859 5.9397105 0 0 Z " fill="#F44235" transform="translate(193,10)"/>
<path d="M0 0 C-2.68800371 1.79200247 -4.54551988 2.60987562 -7.5703125 3.55078125 C-8.91609375 3.98100586 -8.91609375 3.98100586 -10.2890625 4.41992188 C-12.15501074 5.00720724 -14.02217374 5.5906492 -15.890625 6.16992188 C-21.88091041 8.09415173 -27.90978765 10.20041992 -33 14 C-33.33 14.99 -33.66 15.98 -34 17 C-28.64936034 18.69731533 -23.52301219 19.57560321 -17.94140625 20.109375 C-17.07310684 20.19346619 -16.20480743 20.27755737 -15.31019592 20.36419678 C-5.19037512 21.26528407 4.9099881 21.30689899 15.0625 21.25 C16.05690094 21.24689819 17.05130188 21.24379639 18.07583618 21.24060059 C52.52250014 21.11571801 87.0403624 19.05229233 121 13 C119.09040684 17.30129719 116.11249024 19.58092083 112.4375 22.375 C111.85419922 22.83132812 111.27089844 23.28765625 110.66992188 23.7578125 C108.80108392 25.20256019 106.9058184 26.60444684 105 28 C104.29657471 28.53254395 103.59314941 29.06508789 102.8684082 29.61376953 C97.46287591 33.50812233 92.87239454 35.18864941 86.3125 36.125 C85.35698242 36.27622314 84.40146484 36.42744629 83.41699219 36.58325195 C73.56584106 38.0636619 63.65352821 39.1252627 53.75 40.1875 C52.96219147 40.27235657 52.17438293 40.35721313 51.36270142 40.44464111 C34.20675324 42.26716349 17.06617989 43.21561614 -0.1875 43.1875 C-0.88934418 43.18689575 -1.59118835 43.1862915 -2.31430054 43.18566895 C-58.16077084 43.05668055 -58.16077084 43.05668055 -76.1875 29.625 C-78.50859405 26.26341551 -79 24.08077979 -79 20 C-77.51523482 14.80332187 -74.46270758 12.17332954 -69.9921875 9.4453125 C-48.9279362 -0.72932586 -22.8608968 -0.64068337 0 0 Z " fill="#1464C0" transform="translate(125,211)"/>
<path d="M0 0 C0 0.66 0 1.32 0 2 C-1.7734375 3.26953125 -1.7734375 3.26953125 -4.375 4.8125 C-18.12893517 13.34454215 -31.04854945 23.0889659 -43 34 C-43.94875 34.86496094 -44.8975 35.72992188 -45.875 36.62109375 C-52.32664215 42.7751155 -59.10460205 49.51874055 -59.6875 58.875 C-59.00510786 68.62562544 -53.38482558 77.22890204 -48.81811523 85.63232422 C-42.8786253 96.67319031 -40.44147207 106.81181317 -43.92578125 119.109375 C-45.61262178 123.64850952 -47.96442741 127.25273814 -51 131 C-51.45632812 131.60328125 -51.91265625 132.2065625 -52.3828125 132.828125 C-59.2772423 140.84154602 -70.96073759 145.42482462 -81 148 C-79.57694705 144.86505663 -77.8258839 142.45067742 -75.625 139.8125 C-70.35519075 133.06846436 -67.06427579 126.75333277 -67.4296875 118.0078125 C-69.23645678 108.47896079 -75.51909078 100.02537758 -80.78491211 92.05737305 C-85.13718426 85.4071012 -89.47230777 78.09128087 -90 70 C-90.103125 68.72125 -90.20625 67.4425 -90.3125 66.125 C-90.14431625 55.08093392 -86.66003987 43.79005262 -80 35 C-79.38640625 34.18273437 -78.7728125 33.36546875 -78.140625 32.5234375 C-61.30146956 12.07589161 -26.17907733 -0.79330537 0 0 Z " fill="#F44235" transform="translate(258,80)"/>
<path d="M0 0 C-0.309375 0.556875 -0.61875 1.11375 -0.9375 1.6875 C-2.09605966 4.20907102 -2.78670479 6.22716229 -3 9 C-0.50052806 13.0616419 4.92343149 14.46692117 9.328125 15.59765625 C37.05677299 21.48345417 68.22206161 19.09513489 95.3671875 11.45043945 C96.16898437 11.23347412 96.97078125 11.01650879 97.796875 10.79296875 C98.49135742 10.5921167 99.18583984 10.39126465 99.90136719 10.18432617 C105.94029137 9.6539181 111.89594764 14.91436552 116.75 18 C118.06291016 18.81984375 118.06291016 18.81984375 119.40234375 19.65625 C120.23378906 20.1821875 121.06523437 20.708125 121.921875 21.25 C123.06027832 21.96929687 123.06027832 21.96929687 124.22167969 22.703125 C126 24 126 24 127 26 C84.34858017 43.55525201 27.89833955 48.80079054 -16 33 C-21.61664081 30.57321087 -26.71043495 28.35198828 -30 23 C-30.57427172 18.56990385 -30.35551126 15.1907331 -27.578125 11.54296875 C-20.16445538 4.29445513 -10.35601078 0 0 0 Z " fill="#1464C0" transform="translate(106,255)"/>
<path d="M0 0 C-0.33 2.31 -0.66 4.62 -1 7 C14.81539892 17.87308676 42.05965808 13.08804164 59.6953125 10.078125 C66.73164888 8.76917158 73.44513551 7.48411472 79.98046875 4.48608398 C83.98369816 3.52254074 87.16901493 4.54138819 90.70068359 6.49047852 C91.59094238 7.11365967 92.48120117 7.73684082 93.3984375 8.37890625 C94.37167969 9.05244141 95.34492188 9.72597656 96.34765625 10.41992188 C97.84619141 11.48049805 97.84619141 11.48049805 99.375 12.5625 C100.39722656 13.27341797 101.41945312 13.98433594 102.47265625 14.71679688 C104.98853832 16.46850915 107.49716255 18.22972358 110 20 C100.00371836 30.54433823 80.98841115 33.20230585 67.25 35.6875 C66.5895166 35.80697998 65.9290332 35.92645996 65.24853516 36.04956055 C53.88444916 37.98181895 42.49913089 38.24098323 31 38.25 C29.83713974 38.25101212 29.83713974 38.25101212 28.65078735 38.25204468 C-9.72011059 38.19905236 -9.72011059 38.19905236 -23.75 27.5 C-26.91084752 23.9879472 -28.07706846 21.81110888 -27.875 17.0625 C-25.9422343 10.29782005 -22.08221185 6.87238941 -16.30078125 3.2578125 C-10.91271136 0.31221232 -6.06622563 -0.24760105 0 0 Z " fill="#1464C0" transform="translate(117,297)"/>
<path d="M0 0 C0.89328241 8.21819819 -2.95712526 14.7169464 -7.9375 21.0625 C-13.04317632 26.55665169 -19.57160364 30.26142291 -26 34 C-27.38638672 34.81984375 -27.38638672 34.81984375 -28.80078125 35.65625 C-42.44940166 43.08299569 -58.04306613 46.85833684 -73.1875 49.8125 C-74.18217285 50.007229 -75.1768457 50.20195801 -76.20166016 50.40258789 C-94.0964578 53.67834845 -111.84148266 54.37504234 -130 54.3125 C-131.1265097 54.31034485 -132.25301941 54.3081897 -133.41366577 54.30596924 C-150.1271142 54.25467598 -166.49342056 53.85050269 -183 51 C-184.16547363 50.80664062 -185.33094727 50.61328125 -186.53173828 50.4140625 C-209.2390221 46.55355616 -232.17945976 41.07327057 -253 31 C-249.71107192 29.90369064 -248.69125238 30.09537511 -245.40625 30.85546875 C-244.47208252 31.06389404 -243.53791504 31.27231934 -242.57543945 31.48706055 C-241.56054443 31.71820557 -240.54564941 31.94935059 -239.5 32.1875 C-200.90238857 40.58568741 -160.45138376 44.17146301 -121 41 C-119.96955566 40.91766113 -118.93911133 40.83532227 -117.87744141 40.75048828 C-77.20572596 37.28867735 -35.51389652 28.12845851 -3.28125 1.77734375 C-1 0 -1 0 0 0 Z " fill="#1464C0" transform="translate(320,356)"/>
<path d="M0 0 C7.30777027 5.56846701 10.74712891 11.75939456 12.8046875 20.55078125 C14.17695013 33.99895507 11.54174183 46.38221858 3.14453125 57.140625 C-10.40574888 73.03292886 -29.67269036 80.47563672 -49.8828125 83.61328125 C-48.42738894 80.056444 -46.64292896 78.4337269 -43.5703125 76.17578125 C-28.61339863 64.48258702 -13.82932476 49.05199329 -10.9453125 29.48828125 C-10.59316182 23.56658958 -11.67288876 19.24615691 -15.515625 14.66796875 C-22.05708744 8.33837554 -29.05530165 6.4717505 -38.0078125 6.42578125 C-39.63332654 6.47306074 -41.2587492 6.52991678 -42.8828125 6.61328125 C-39.98385207 3.40664813 -37.33684226 1.64752223 -33.3828125 -0.07421875 C-32.444375 -0.49058594 -31.5059375 -0.90695313 -30.5390625 -1.3359375 C-21.13395711 -5.05648655 -8.8102779 -5.26540177 0 0 Z " fill="#1464C0" transform="translate(292.8828125,214.38671875)"/>
</svg>
