<?xml version="1.0" encoding="UTF-8"?>
<svg version="1.1" xmlns="http://www.w3.org/2000/svg" width="512" height="512">
<path d="M0 0 C1.11648926 0.14453613 2.23297852 0.28907227 3.38330078 0.43798828 C36.65930409 4.75092512 82.45881616 11.65731578 105.15094393 39.4908213 C111.8334778 48.55905451 112.72791694 57.21057124 112.64164734 68.2127533 C112.64813518 69.73163157 112.65679508 71.25050183 112.66742164 72.76935679 C112.69012069 76.91729779 112.68189329 81.0646742 112.66828239 85.21263349 C112.65899697 89.69605755 112.67853941 94.17937217 112.69425964 98.6627655 C112.72030555 107.43581065 112.71927075 116.20865059 112.70822146 124.98171967 C112.69965217 132.11428792 112.70050239 139.24679693 112.70801735 146.37936592 C112.70907224 147.39574379 112.71012713 148.41212167 112.71121398 149.45929887 C112.71338498 151.52426923 112.71557175 153.58923959 112.71777413 155.65420992 C112.73719034 175.00412034 112.72521912 194.35391578 112.70298818 213.70381678 C112.68473927 230.29343045 112.69564095 246.88282153 112.72729492 263.47241211 C112.76408165 282.75303743 112.78107075 302.03352377 112.76788265 321.31418425 C112.76654159 323.37172892 112.76523261 325.4292736 112.76395607 327.48681831 C112.76301007 329.00520707 112.76301007 329.00520707 112.76204496 330.55427034 C112.75902156 337.6746752 112.77026101 344.79497494 112.78720665 351.91535759 C112.80755973 360.59805242 112.80661903 369.28043325 112.77857425 377.96311181 C112.76482879 382.39007184 112.76055843 386.81648421 112.78252411 391.24342346 C112.80239528 395.30195572 112.79420106 399.35946085 112.76432977 403.41792292 C112.75835865 404.88010748 112.76233679 406.34237671 112.777693 407.80449282 C112.90789523 421.18461531 108.96309823 430.95836977 99.6484375 440.62890625 C73.07455196 464.41998077 31.34503648 469.98904803 -2.6875 474.25 C-3.35105499 474.33317474 -4.01460999 474.41634949 -4.69827271 474.50204468 C-18.53773047 476.21308067 -32.2923456 477.15311345 -46.2421875 477.203125 C-47.55697083 477.21013931 -48.87175415 477.21715363 -50.22637939 477.22438049 C-54.44259125 477.24376536 -58.65874807 477.24881378 -62.875 477.25 C-63.59271324 477.25044186 -64.31042648 477.25088371 -65.04988861 477.25133896 C-86.17226754 477.25816141 -107.05461316 477.07667262 -128 474 C-129.23008789 473.82839355 -130.46017578 473.65678711 -131.72753906 473.47998047 C-208.53341719 462.55929716 -208.53341719 462.55929716 -231.53714836 436.98752785 C-238.95726155 426.90606698 -241.03444269 417.82811406 -240.8888855 405.43994141 C-240.89697115 403.91989128 -240.90810203 402.39985489 -240.92197621 400.87984657 C-240.95096009 396.74234661 -240.93686631 392.60598959 -240.91507268 388.46848774 C-240.89914254 383.99118465 -240.92372636 379.5140692 -240.94293213 375.0368042 C-240.97396742 366.28147207 -240.96737639 357.52656132 -240.94704364 348.77121305 C-240.93119881 341.65206682 -240.92910652 334.53303822 -240.93671036 327.41387939 C-240.93778299 326.39848544 -240.93885562 325.38309148 -240.93996076 324.33692801 C-240.94219896 322.27381369 -240.94446845 320.2106994 -240.94676889 318.14758515 C-240.966703 298.82711932 -240.94382115 279.50688644 -240.90616633 260.18645883 C-240.87489436 243.62874658 -240.88032728 227.07137793 -240.91259766 210.51367188 C-240.95010565 191.25971768 -240.96478063 172.00596737 -240.94331181 152.75198174 C-240.9410821 150.69669472 -240.9388815 148.64140768 -240.93671036 146.58612061 C-240.93563043 145.57502782 -240.9345505 144.56393504 -240.93343785 143.52220309 C-240.92740805 136.41622095 -240.93756489 129.31036875 -240.95406723 122.20440674 C-240.97375235 113.5378903 -240.96827787 104.87181735 -240.93110202 96.20535135 C-240.91277506 91.78819039 -240.90537943 87.37176731 -240.92864609 82.95461273 C-240.94966506 78.90273252 -240.93778642 74.85226676 -240.90080322 70.80051303 C-240.89305077 69.3431018 -240.89681055 67.88556846 -240.91393374 66.4282372 C-241.0495739 53.9139373 -237.8126992 43.93160007 -229.25 34.5625 C-202.84204177 10.7852196 -161.89472628 4.38787263 -128 0 C-126.93378418 -0.15098145 -125.86756836 -0.30196289 -124.76904297 -0.45751953 C-84.61082149 -6.01125238 -40.10803302 -5.67949629 0 0 Z " fill="#2E58FF" transform="translate(320,19)"/>
<path d="M0 0 C0.58116577 0.2253241 1.16233154 0.45064819 1.7611084 0.68280029 C4.45393537 1.72445104 7.14881981 2.76067844 9.84375 3.796875 C10.75737305 4.15120605 11.67099609 4.50553711 12.61230469 4.87060547 C35.19446172 13.53307311 58.38795017 17.48534632 82.25 20.6875 C83.05098114 20.79627472 83.85196228 20.90504944 84.67721558 21.01712036 C103.37390503 23.535663 121.83059318 24.20458948 140.6875 24.1875 C141.71580933 24.18756042 142.74411865 24.18762085 143.80358887 24.18768311 C159.96154865 24.17421448 175.97110149 23.71303092 192.07128906 22.26025391 C194.63781333 22.03218498 197.2028182 21.8418084 199.7734375 21.66796875 C230.07673171 19.37450983 259.89033361 11.3081238 288 0 C288.16230805 10.58761644 288.2866286 21.17493618 288.3626852 31.76354408 C288.39919224 36.6805381 288.44869534 41.59668001 288.52807617 46.51318359 C288.60422782 51.25947799 288.64600932 56.00495375 288.6641407 60.75181198 C288.67705855 62.56119041 288.70228554 64.37052484 288.7401104 66.17955399 C288.79106464 68.71784906 288.79791884 71.25277833 288.79467773 73.79150391 C288.83242813 74.90928726 288.83242813 74.90928726 288.87094116 76.0496521 C288.82852057 79.12764233 288.51495585 81.39202544 286.49765205 83.7737236 C269.11210415 98.97688069 240.97695744 104.25741833 218.875 107.5625 C218.18293457 107.66605804 217.49086914 107.76961609 216.77783203 107.87631226 C212.50728931 108.51171438 208.23366496 109.12239749 203.95788574 109.72143555 C202.17261009 109.97544135 200.38939049 110.24379298 198.60644531 110.51367188 C161.95193292 115.97164993 122.65858889 115.04972936 86 110 C83.99231196 109.74511147 81.98450283 109.49117462 79.9765625 109.23828125 C70.20559846 107.96450315 60.59161296 106.27387376 51 104 C49.47930435 103.67123751 47.9584608 103.34315864 46.4375 103.015625 C37.23160153 100.95892992 28.51437795 98.28560291 19.8125 94.625 C18.54007446 94.0988208 18.54007446 94.0988208 17.24194336 93.56201172 C10.80716055 90.73698512 4.99515472 86.99515472 0 82 C-0.09506052 79.44410112 -0.12556761 76.91532028 -0.11352539 74.35913086 C-0.11367142 73.55919205 -0.11381744 72.75925323 -0.1139679 71.93507385 C-0.11326855 69.27830335 -0.10547518 66.62160207 -0.09765625 63.96484375 C-0.09579215 62.12781309 -0.09436821 60.29078194 -0.09336853 58.45375061 C-0.08954275 53.60890338 -0.07971196 48.76408592 -0.06866455 43.91925049 C-0.05845172 38.97937422 -0.05387119 34.03949315 -0.04882812 29.09960938 C-0.03808974 19.39972647 -0.0210126 9.69986571 0 0 Z " fill="#D5E9FF" transform="translate(112,119)"/>
<path d="M0 0 C0.58116577 0.2253241 1.16233154 0.45064819 1.7611084 0.68280029 C4.45393537 1.72445104 7.14881981 2.76067844 9.84375 3.796875 C10.75737305 4.15120605 11.67099609 4.50553711 12.61230469 4.87060547 C35.21552415 13.54115262 58.42713877 17.49182969 82.3125 20.6875 C83.11775116 20.79627472 83.92300232 20.90504944 84.75265503 21.01712036 C103.23209307 23.4934597 121.49582949 24.20392028 140.125 24.1875 C141.17948334 24.18756042 142.23396667 24.18762085 143.32040405 24.18768311 C159.64523983 24.17439895 175.82148796 23.73671753 192.08740234 22.26025391 C194.64725092 22.03151974 197.20548747 21.84132651 199.76953125 21.66796875 C230.07393443 19.37620878 259.88953777 11.30844395 288 0 C288.16230805 10.58761644 288.2866286 21.17493618 288.3626852 31.76354408 C288.39919224 36.6805381 288.44869534 41.59668001 288.52807617 46.51318359 C288.60422782 51.25947799 288.64600932 56.00495375 288.6641407 60.75181198 C288.67705855 62.56119041 288.70228554 64.37052484 288.7401104 66.17955399 C288.79106464 68.71784906 288.79791884 71.25277833 288.79467773 73.79150391 C288.83242813 74.90928726 288.83242813 74.90928726 288.87094116 76.0496521 C288.82852057 79.12764233 288.51495585 81.39202544 286.49765205 83.7737236 C263.44906677 103.92904253 223.90626891 107.73830835 195 111 C193.85917969 111.12980759 193.85917969 111.12980759 192.6953125 111.26223755 C176.96589183 113.00409004 161.31774068 113.43802512 145.5 113.4375 C144.24985107 113.43923218 142.99970215 113.44096436 141.71166992 113.44274902 C124.19993182 113.43218974 106.90460327 112.70712136 89.5 110.75 C88.57743408 110.64767059 87.65486816 110.54534119 86.7043457 110.43991089 C75.27196592 109.13521797 64.11604424 107.15702015 52.93041992 104.4642334 C51.1989809 104.04785155 49.46394862 103.64647892 47.72851562 103.24707031 C30.7743589 99.31558847 12.68280863 94.68280863 0 82 C-0.09506052 79.44410112 -0.12556761 76.91532028 -0.11352539 74.35913086 C-0.11367142 73.55919205 -0.11381744 72.75925323 -0.1139679 71.93507385 C-0.11326855 69.27830335 -0.10547518 66.62160207 -0.09765625 63.96484375 C-0.09579215 62.12781309 -0.09436821 60.29078194 -0.09336853 58.45375061 C-0.08954275 53.60890338 -0.07971196 48.76408592 -0.06866455 43.91925049 C-0.05845172 38.97937422 -0.05387119 34.03949315 -0.04882812 29.09960938 C-0.03808974 19.39972647 -0.0210126 9.69986571 0 0 Z " fill="#D5E9FF" transform="translate(112,351)"/>
<path d="M0 0 C0.58116577 0.2253241 1.16233154 0.45064819 1.7611084 0.68280029 C4.45393537 1.72445104 7.14881981 2.76067844 9.84375 3.796875 C10.75737305 4.15120605 11.67099609 4.50553711 12.61230469 4.87060547 C47.04559653 18.07914334 86.32628877 23.66821324 123.11376953 23.96484375 C126.01160439 23.99105861 128.90695419 24.03306425 131.80419922 24.08984375 C185.50808892 25.11170428 237.82493793 20.18472242 288 0 C288.16236709 9.54457626 288.28665692 19.08867546 288.3626852 28.63433266 C288.39918018 33.06710294 288.44865916 37.49892678 288.52807617 41.93115234 C288.60427398 46.21061845 288.64601839 50.4891758 288.6641407 54.76926804 C288.67705056 56.40003134 288.70226233 58.03074622 288.7401104 59.66112137 C289.0245144 72.42276903 289.0245144 72.42276903 286.50450134 76.30230713 C284.72678152 77.86340327 283.10774506 78.94223877 281 80 C279.97261719 80.6290625 278.94523437 81.258125 277.88671875 81.90625 C259.16127625 91.23467557 238.88353368 96.56992876 218.25 99.625 C216.83860346 99.83938935 215.42722673 100.05390908 214.01586914 100.26855469 C203.70864251 101.81908308 193.39457735 103.18833541 183 104 C181.51729614 104.12592529 181.51729614 104.12592529 180.00463867 104.25439453 C150.08889596 106.55608751 119.61394139 106.09147848 89.8125 102.75 C88.41630936 102.59636993 88.41630936 102.59636993 86.99191284 102.43963623 C74.78301251 101.06269565 62.94440471 98.85165631 51 96 C49.20263348 95.60695198 47.40460797 95.21688344 45.60546875 94.83203125 C36.68741197 92.82164171 28.24646798 90.16830011 19.8125 86.625 C18.96389404 86.2741333 18.11528809 85.9232666 17.2409668 85.56176758 C10.80666777 82.73647279 4.99493152 78.99493152 0 74 C-0.09443335 71.69946165 -0.11742128 69.39597827 -0.11352539 67.09350586 C-0.11367142 66.37159561 -0.11381744 65.64968536 -0.1139679 64.90589905 C-0.11326869 62.50885053 -0.10547595 60.11187877 -0.09765625 57.71484375 C-0.0957921 56.05717511 -0.09436818 54.39950593 -0.09336853 52.74183655 C-0.08954312 48.37045786 -0.07971265 43.99911219 -0.06866455 39.62774658 C-0.05845092 35.17045539 -0.05387101 30.71315889 -0.04882812 26.25585938 C-0.0380904 17.50389107 -0.02101371 8.75194964 0 0 Z " fill="#8AC3FF" transform="translate(112,239)"/>
<path d="M0 0 C1.14637939 -0.00701431 2.29275879 -0.01402863 3.47387695 -0.02125549 C7.14929183 -0.03864837 10.82454549 -0.04510726 14.5 -0.046875 C16.385979 -0.04788712 16.385979 -0.04788712 18.31005859 -0.04891968 C36.60312439 -0.03330977 54.39271169 0.46228078 72.5 3.203125 C73.84191379 3.39405007 75.18404877 3.58342513 76.52636719 3.77148438 C80.81246875 4.37335577 85.09451215 5.00010904 89.375 5.640625 C90.66535156 5.83358154 91.95570313 6.02653809 93.28515625 6.2253418 C114.89858877 9.65913389 142.32619645 15.41441201 158.5 31.203125 C155.27123567 38.85895795 147.01316435 42.15583405 139.76806641 45.24389648 C112.38848127 56.35341401 82.84281528 60.91187992 53.5 63.203125 C52.51153076 63.2870752 51.52306152 63.37102539 50.50463867 63.45751953 C20.58889596 65.75921251 -9.88605861 65.29460348 -39.6875 61.953125 C-40.61829376 61.85070496 -41.54908752 61.74828491 -42.50808716 61.64276123 C-54.71698749 60.26582065 -66.55559529 58.05478131 -78.5 55.203125 C-80.29736652 54.81007698 -82.09539203 54.42000844 -83.89453125 54.03515625 C-92.81258803 52.02476671 -101.25353202 49.37142511 -109.6875 45.828125 C-110.53610596 45.4772583 -111.38471191 45.1263916 -112.2590332 44.76489258 C-118.17051613 42.16916586 -124.07655262 38.9956918 -128.5 34.203125 C-128.5 30.203125 -128.5 30.203125 -126.8894043 28.44604492 C-121.30763636 24.23385785 -115.78267429 21.14743876 -109.3125 18.515625 C-108.38542236 18.13116211 -107.45834473 17.74669922 -106.50317383 17.35058594 C-99.27931698 14.40853346 -92.10572404 11.96901612 -84.5 10.203125 C-83.72043945 10.01298828 -82.94087891 9.82285156 -82.13769531 9.62695312 C-55.57824467 3.2191488 -27.30685818 0.11262608 0 0 Z " fill="#8AC3FF" transform="translate(241.5,47.796875)"/>
</svg>
