<?xml version="1.0" encoding="UTF-8"?>
<svg xmlns="http://www.w3.org/2000/svg" viewBox="0 0 256 256">
    <path fill="#3776AB" d="M116.949 13.138c-23.423 0-43.764 8.563-58.023 23.363-9.863 10.296-16.825 23.087-20.889 38.375l-.044.145c-7.569 27.083-8.401 54.465-2.616 82.147.678 3.246 1.447 6.447 2.277 9.608l.094.396c2.559 10.426 5.028 19.228 7.487 26.406.577 1.634 1.206 3.279 1.835 4.881 2.033 5.183 4.162 9.516 6.447 13.006 8.463 12.867 18.581 20.994 30.354 24.381 3.303.936 6.165 1.397 8.585 1.397 13.447-.044 20.029-9.791 20.029-19.228 0-6.853-3.578-12.509-5.473-15.621-1.011-1.658-3.231-4.093-5.367-6.414l-.57-.673c-6.76-7.368-10.636-12.215-10.636-23.362 0-12.168 7.368-22.28 18.518-25.516 3.613-1.045 7.051-1.584 10.24-1.584h.087c21.965.044 35.321 16.622 35.321 43.879 0 39.598-11.258 54.068-23.423 70.056-.849 1.109-1.69 2.216-2.517 3.35l-.094.117c-1.194 1.624-2.281 3.255-3.354 4.874-2.122 3.246-3.173 6.685-3.173 10.344 0 10.904 8.919 21.516 22.411 21.516 14.54 0 29.08-11.258 43.315-33.485 11.71-18.25 20.741-39.766 26.886-63.985 3.173-12.509 5.588-24.984 7.251-37.284.522-3.781.936-7.592 1.292-11.403h18.332c9.632 0 18.286-1.281 25.813-3.781 16.622-5.588 27.357-17.298 27.357-30.009 0-8.987-5.923-15.039-15.584-15.906-1.011-.117-2.106-.16-3.203-.16h-1.105c-16.419.262-39.32 11.534-39.32 24.689 0 2.616.673 4.598 2.137 6.447.469.673 1 1.266 1.556 1.795.717.732 1.716 1.458 2.68 2.167l.402.308c.775.657 1.525 1.331 2.137 2.034.936 1.107 1.34 2.281 1.34 3.84 0 6.853-7.149 13.006-15.473 13.006h-17.997c.365-4.534.541-9.142.541-13.75 0-27.619-7.07-53.454-19.918-72.901-12.151-18.435-28.861-28.592-47.126-28.592l-.981.015h-.076c-18.765.468-30.965 9.237-41.016 18.922-2.485-3.897-6.239-7.341-11.315-10.382-7.928-4.598-16.765-6.936-26.303-6.936h-1.078z"/>
</svg>
