<?xml version="1.0" encoding="UTF-8"?>
<svg version="1.1" xmlns="http://www.w3.org/2000/svg" width="1213" height="1270">
<path d="M0 0 C2.22216797 1.00878906 2.22216797 1.00878906 4.4921875 2.265625 C5.34981689 2.73661621 6.20744629 3.20760742 7.09106445 3.69287109 C8.00976318 4.20672363 8.92846191 4.72057617 9.875 5.25 C10.8446167 5.7857666 11.8142334 6.3215332 12.81323242 6.87353516 C21.59846085 11.74078779 30.33983839 16.68676281 39.07421875 21.64453125 C45.24309224 25.14361741 51.43338537 28.60386378 57.625 32.0625 C65.27222856 36.33686675 72.90023594 40.64180356 80.5 45 C88.05970214 49.33437364 95.64508827 53.6204381 103.25 57.875 C104.29599365 58.46023437 105.3419873 59.04546875 106.41967773 59.6484375 C111.71053838 62.60668099 117.00433558 65.5595812 122.30078125 68.5078125 C132.61696082 74.2577747 142.88290256 80.0736225 153.0625 86.0625 C162.01079144 91.32421845 171.06674374 96.34090858 180.21337891 101.24853516 C187.5445261 105.18889207 194.78773737 109.26170574 202.0012207 113.4128418 C208.7654345 117.30345729 215.56271328 121.13172691 222.375 124.9375 C230.42847774 129.4377007 238.47204181 133.95442305 246.5 138.5 C254.48774107 143.02207659 262.48878029 147.5196512 270.5 152 C279.45791332 157.00979597 288.40024115 162.04620483 297.33154297 167.10327148 C304.4167797 171.11232751 311.51852549 175.09123483 318.625 179.0625 C326.27214861 183.33701181 333.90023427 187.6418026 341.5 192 C352.2240317 198.1486497 363.00973795 204.18506266 373.80175781 210.21337891 C383.20605864 215.46686543 392.60517553 220.72958703 402 226 C403.01964844 226.57169922 404.03929687 227.14339844 405.08984375 227.73242188 C406.10175781 228.30025391 407.11367188 228.86808594 408.15625 229.453125 C409.15180908 230.01056396 410.14736816 230.56800293 411.1730957 231.14233398 C413.12029244 232.24404376 415.05923461 233.3604898 416.98901367 234.49243164 C421.17997175 236.94235422 425.18759044 239.16655833 429.76953125 240.79296875 C437.79908112 243.90937374 437.79908112 243.90937374 440 248 C441.80150422 257.50553308 440.90411532 267.43121434 440 277 C438.4873692 277.8665666 436.97423633 278.73225678 435.4609375 279.59765625 C434.49534912 280.1501001 433.52976074 280.70254395 432.53491211 281.27172852 C430.41803127 282.47139791 428.29369577 283.65800207 426.16235352 284.83178711 C419.43889452 288.51406048 419.43889452 288.51406048 413.12890625 292.84375 C409.52340781 295.35038784 407.38975916 296.57593622 403 297 C396.0401369 294.94558258 389.96174997 290.7390719 383.91308594 286.84472656 C379.27966111 283.9105866 374.4804658 281.28707197 369.6875 278.625 C367.76326107 277.53572782 365.84009497 276.44455844 363.91796875 275.3515625 C357.79205783 271.87698255 351.64730077 268.43655645 345.5 265 C336.54056336 259.98957491 327.59717937 254.95170898 318.6640625 249.89453125 C311.62053653 245.90963231 304.56309283 241.95010006 297.5 238 C288.54208668 232.99020403 279.59975885 227.95379517 270.66845703 222.89672852 C263.5832203 218.88767249 256.48147451 214.90876517 249.375 210.9375 C241.72785139 206.66298819 234.09976573 202.3581974 226.5 198 C215.7759683 191.8513503 204.99026205 185.81493734 194.19824219 179.78662109 C180.00114452 171.85575386 165.81539433 163.90569362 151.66357422 155.89428711 C144.62024009 151.90941739 137.56290679 147.95006062 130.5 144 C117.69863155 136.83966109 104.9300992 129.62203755 92.16601562 122.39550781 C80.23931983 115.64416074 68.29784747 108.92035813 56.33642578 102.23071289 C49.3806025 98.3386229 42.4364808 94.42644532 35.5 90.5 C31.66726535 88.33227285 27.83388706 86.1656883 24 84 C22.88302734 83.36900391 21.76605469 82.73800781 20.61523438 82.08789062 C17.16219901 80.13829306 13.70619738 78.19398667 10.25 76.25 C9.17169922 75.64091797 8.09339844 75.03183594 6.98242188 74.40429688 C5.98275391 73.84291016 4.98308594 73.28152344 3.953125 72.703125 C3.06786133 72.20458008 2.18259766 71.70603516 1.27050781 71.19238281 C-1.0611217 69.89011636 -1.0611217 69.89011636 -4 69 C-6.55111521 70.04330726 -6.55111521 70.04330726 -9.3203125 71.69140625 C-10.40022461 72.29936035 -11.48013672 72.90731445 -12.59277344 73.53369141 C-13.77026599 74.2098152 -14.9476726 74.88608868 -16.125 75.5625 C-17.34351349 76.25278343 -18.56259727 76.94206105 -19.78222656 77.63037109 C-22.29606742 79.05067882 -24.80686508 80.47615659 -27.31542969 81.90576172 C-31.75103685 84.43106676 -36.20799245 86.91770479 -40.66552734 89.40405273 C-50.57703987 94.93407108 -60.45989188 100.51464447 -70.33691406 106.10595703 C-78.43181768 110.68585882 -86.54660037 115.22976539 -94.6640625 119.76953125 C-101.61969795 123.66158037 -108.56385204 127.57333772 -115.5 131.5 C-124.53940309 136.61734803 -133.59814296 141.6993318 -142.6640625 146.76953125 C-149.61969795 150.66158037 -156.56385204 154.57333772 -163.5 158.5 C-172.53940309 163.61734803 -181.59814296 168.6993318 -190.6640625 173.76953125 C-197.61969829 177.66158055 -204.56381803 181.57339742 -211.5 185.5 C-224.69637709 192.96932638 -237.931318 200.36936445 -251.16601562 207.77050781 C-263.23799859 214.52231793 -275.29951026 221.291563 -287.33642578 228.10571289 C-295.43152664 232.68563509 -303.54644164 237.22967662 -311.6640625 241.76953125 C-318.61969795 245.66158037 -325.56385204 249.57333772 -332.5 253.5 C-341.53940309 258.61734803 -350.59814296 263.6993318 -359.6640625 268.76953125 C-366.61969795 272.66158037 -373.56385204 276.57333772 -380.5 280.5 C-389.53940309 285.61734803 -398.59814296 290.6993318 -407.6640625 295.76953125 C-414.61969829 299.66158055 -421.56381803 303.57339742 -428.5 307.5 C-436.44760374 311.99845029 -444.40624 316.47663233 -452.375 320.9375 C-453.39948242 321.51161621 -454.42396484 322.08573242 -455.47949219 322.67724609 C-460.38366772 325.42386051 -465.29111794 328.16414923 -470.20925903 330.88569641 C-471.94191453 331.84493717 -473.67335706 332.80636783 -475.40478516 333.76782227 C-477.5820241 334.97656965 -479.7612876 336.18167988 -481.94287109 337.38256836 C-482.92594238 337.92921143 -483.90901367 338.47585449 -484.921875 339.0390625 C-485.78393555 339.51553223 -486.64599609 339.99200195 -487.53417969 340.48291016 C-490.2099944 342.12919854 -492.58633982 343.99293627 -495 346 C-494.24195068 346.41660889 -493.48390137 346.83321777 -492.70288086 347.26245117 C-477.97738853 355.35964001 -463.28194477 363.50257221 -448.6640625 371.79296875 C-442.66278691 375.19550571 -436.64534767 378.56884989 -430.625 381.9375 C-429.58714355 382.51830322 -428.54928711 383.09910645 -427.47998047 383.69750977 C-424.3201931 385.46537531 -421.16014557 387.23277485 -418 389 C-404.87230126 396.34130716 -391.7527374 403.69588105 -378.66357422 411.10571289 C-371.62024036 415.09058246 -364.56293416 419.04998867 -357.5 423 C-348.5406579 428.01059503 -339.59718026 433.04829051 -330.6640625 438.10546875 C-323.62053653 442.09036769 -316.56309283 446.04989994 -309.5 450 C-300.5406579 455.01059503 -291.59718026 460.04829051 -282.6640625 465.10546875 C-275.62053653 469.09036769 -268.56309283 473.04989994 -261.5 477 C-252.5406579 482.01059503 -243.59718026 487.04829051 -234.6640625 492.10546875 C-227.62053653 496.09036769 -220.56309283 500.04989994 -213.5 504 C-205.48877949 508.48034925 -197.4878194 512.97806092 -189.5 517.5 C-177.35589907 524.37372397 -165.17937077 531.18901937 -153 538 C-139.87230126 545.34130716 -126.7527374 552.69588105 -113.66357422 560.10571289 C-106.62024036 564.09058246 -99.56293416 568.04998867 -92.5 572 C-83.5406579 577.01059503 -74.59718026 582.04829051 -65.6640625 587.10546875 C-57.58276117 591.67749265 -49.48234082 596.21489135 -41.37768555 600.74536133 C-36.08407009 603.70635175 -30.79643108 606.67727443 -25.51953125 609.66796875 C-24.47667969 610.25900391 -23.43382812 610.85003906 -22.359375 611.45898438 C-20.38333497 612.58000708 -18.4080287 613.70232457 -16.43359375 614.82617188 C-15.09941406 615.58317383 -15.09941406 615.58317383 -13.73828125 616.35546875 C-12.96524658 616.79528076 -12.19221191 617.23509277 -11.39575195 617.68823242 C-10.60515381 618.12111572 -9.81455566 618.55399902 -9 619 C-8.03852051 619.60626221 -7.07704102 620.21252441 -6.08642578 620.8371582 C-3.03887383 622.34574152 -3.03887383 622.34574152 -0.02172852 621.078125 C1.01540283 620.47484375 2.05253418 619.8715625 3.12109375 619.25 C3.97982841 618.76410904 3.97982841 618.76410904 4.85591125 618.2684021 C6.73012655 617.2009958 8.58288725 616.10105393 10.4375 615 C11.74314411 614.24851219 13.05012815 613.4993479 14.35839844 612.75244141 C17.00320996 611.23810013 19.64019024 609.71139277 22.27099609 608.17285156 C26.4824099 605.7122593 30.72983538 603.31785769 34.98266602 600.9296875 C37.76887057 599.36439852 40.54905125 597.78884704 43.328125 596.2109375 C49.37236178 592.78390164 55.43533804 589.39072282 61.5 586 C69.5112822 581.51976273 77.51222038 577.02200747 85.5 572.5 C94.53940309 567.38265197 103.59814296 562.3006682 112.6640625 557.23046875 C119.61969795 553.33841963 126.56385204 549.42666228 133.5 545.5 C142.53940309 540.38265197 151.59814296 535.3006682 160.6640625 530.23046875 C167.61969795 526.33841963 174.56385204 522.42666228 181.5 518.5 C190.53940309 513.38265197 199.59814296 508.3006682 208.6640625 503.23046875 C215.61969795 499.33841963 222.56385204 495.42666228 229.5 491.5 C238.53940309 486.38265197 247.59814296 481.3006682 256.6640625 476.23046875 C263.61969795 472.33841963 270.56385204 468.42666228 277.5 464.5 C286.53940309 459.38265197 295.59814296 454.3006682 304.6640625 449.23046875 C311.61969795 445.33841963 318.56385204 441.42666228 325.5 437.5 C334.53940309 432.38265197 343.59814296 427.3006682 352.6640625 422.23046875 C359.61969829 418.33841945 366.56381803 414.42660258 373.5 410.5 C386.69637709 403.03067362 399.931318 395.63063555 413.16601562 388.22949219 C425.23799859 381.47768207 437.29951026 374.708437 449.33642578 367.89428711 C457.43152664 363.31436491 465.54644164 358.77032338 473.6640625 354.23046875 C481.56482773 349.8095691 489.44921847 345.36036487 497.32714844 340.89892578 C502.32028038 338.07325534 507.31930787 335.25872401 512.328125 332.4609375 C513.38926514 331.86796875 514.45040527 331.275 515.54370117 330.6640625 C517.66229007 329.48192442 519.78222277 328.30219108 521.90356445 327.125 C526.85464031 324.36777435 531.75939523 321.56579923 536.58984375 318.6015625 C537.45448242 318.0770752 538.31912109 317.55258789 539.20996094 317.01220703 C540.81384825 316.03324782 542.40781649 315.03776891 543.98925781 314.02294922 C544.69791992 313.59256348 545.40658203 313.16217773 546.13671875 312.71875 C547.04490356 312.14543945 547.04490356 312.14543945 547.97143555 311.56054688 C559.68545904 308.32364738 570.39641803 321.0619941 581 327 C581 401.91 581 476.82 581 554 C567.635 561.425 567.635 561.425 554 569 C540.86825255 576.33832946 527.75019119 583.69848691 514.65869141 591.1081543 C502.40781639 598.03843971 490.11876728 604.90057832 477.83398438 611.77050781 C465.76200141 618.52231793 453.70048974 625.291563 441.66357422 632.10571289 C433.56847336 636.68563509 425.45355836 641.22967662 417.3359375 645.76953125 C410.38030205 649.66158037 403.43614796 653.57333772 396.5 657.5 C387.46059691 662.61734803 378.40185704 667.6993318 369.3359375 672.76953125 C362.38030171 676.66158055 355.43618197 680.57339742 348.5 684.5 C335.30362291 691.96932638 322.068682 699.36936445 308.83398438 706.77050781 C296.76200141 713.52231793 284.70048974 720.291563 272.66357422 727.10571289 C264.56847336 731.68563509 256.45355836 736.22967662 248.3359375 740.76953125 C241.38030205 744.66158037 234.43614796 748.57333772 227.5 752.5 C218.46059691 757.61734803 209.40185704 762.6993318 200.3359375 767.76953125 C193.38030171 771.66158055 186.43618197 775.57339742 179.5 779.5 C166.30362291 786.96932638 153.068682 794.36936445 139.83398438 801.77050781 C127.76200141 808.52231793 115.70048974 815.291563 103.66357422 822.10571289 C95.56847336 826.68563509 87.45355836 831.22967662 79.3359375 835.76953125 C72.38030205 839.66158037 65.43614796 843.57333772 58.5 847.5 C49.47688633 852.60812633 40.43575933 857.68328634 31.38427734 862.7409668 C26.05111493 865.72313461 20.72603448 868.71850471 15.4140625 871.73828125 C14.35767578 872.33833984 13.30128906 872.93839844 12.21289062 873.55664062 C10.19726091 874.70278301 8.18287829 875.85112213 6.16992188 877.00195312 C5.27080078 877.51306641 4.37167969 878.02417969 3.4453125 878.55078125 C2.26219482 879.22620972 2.26219482 879.22620972 1.05517578 879.9152832 C-1 881 -1 881 -4 882 C-6.23876953 881.05053711 -6.23876953 881.05053711 -8.8828125 879.52734375 C-9.87216797 878.96466797 -10.86152344 878.40199219 -11.88085938 877.82226562 C-13.48670898 876.88930664 -13.48670898 876.88930664 -15.125 875.9375 C-16.82608474 874.96643543 -18.52717793 873.99538526 -20.2288208 873.02529907 C-21.99446569 872.01712108 -23.7576271 871.00470146 -25.52050781 869.99169922 C-30.8222025 866.95031294 -36.16288148 863.97862043 -41.5 861 C-43.58090701 859.834953 -45.66163553 858.66958715 -47.7421875 857.50390625 C-51.93419757 855.15630199 -56.12697809 852.81008157 -60.3203125 850.46484375 C-71.34170521 844.2994112 -82.35045319 838.1126603 -93.34082031 831.89208984 C-104.53949514 825.55715696 -115.77038025 819.2798583 -127 813 C-140.1291297 805.65789261 -153.24965906 798.30171411 -166.34082031 790.89208984 C-177.53949514 784.55715696 -188.77038025 778.2798583 -200 772 C-213.1291297 764.65789261 -226.24965906 757.30171411 -239.34082031 749.89208984 C-250.53949514 743.55715696 -261.77038025 737.2798583 -273 731 C-286.1291297 723.65789261 -299.24965906 716.30171411 -312.34082031 708.89208984 C-322.48992675 703.15088304 -332.66585758 697.4578339 -342.84277344 691.76611328 C-349.10328908 688.26405868 -355.36148612 684.75786247 -361.62011719 681.25244141 C-366.85275048 678.32187215 -372.08594222 675.39230956 -377.3203125 672.46484375 C-388.34170521 666.2994112 -399.35045319 660.1126603 -410.34082031 653.89208984 C-421.53949514 647.55715696 -432.77038025 641.2798583 -444 635 C-457.11596123 627.66525672 -470.22406174 620.31771788 -483.30126953 612.9140625 C-491.74129825 608.13872548 -500.2011435 603.39910641 -508.66601562 598.66796875 C-509.65279297 598.11625 -510.63957031 597.56453125 -511.65625 596.99609375 C-512.52056641 596.51325928 -513.38488281 596.0304248 -514.27539062 595.53295898 C-517.52573361 593.70420418 -520.76189845 591.85034374 -524 590 C-524 629.27 -524 668.54 -524 709 C-516.74 712.96 -509.48 716.92 -502 721 C-498.22107976 723.11319656 -494.44811796 725.23037118 -490.6875 727.375 C-488.76196619 728.467884 -486.83617547 729.56031544 -484.91015625 730.65234375 C-483.45826904 731.47581299 -483.45826904 731.47581299 -481.97705078 732.31591797 C-476.86861846 735.20569705 -471.74698128 738.07182431 -466.625 740.9375 C-465.58770752 741.51798096 -464.55041504 742.09846191 -463.48168945 742.6965332 C-460.32133823 744.46473466 -457.1607182 746.23245463 -454 748 C-440.8708703 755.34210739 -427.75034094 762.69828589 -414.65917969 770.10791016 C-404.51007325 775.84911696 -394.33414242 781.5421661 -384.15722656 787.23388672 C-377.89671092 790.73594132 -371.63851388 794.24213753 -365.37988281 797.74755859 C-360.14724952 800.67812785 -354.91405778 803.60769044 -349.6796875 806.53515625 C-338.65829479 812.7005888 -327.64954681 818.8873397 -316.65917969 825.10791016 C-305.46050486 831.44284304 -294.22961975 837.7201417 -283 844 C-269.8708703 851.34210739 -256.75034094 858.69828589 -243.65917969 866.10791016 C-232.46050486 872.44284304 -221.22961975 878.7201417 -210 885 C-196.8708703 892.34210739 -183.75034094 899.69828589 -170.65917969 907.10791016 C-159.46050486 913.44284304 -148.22961975 919.7201417 -137 926 C-123.8708703 933.34210739 -110.75034094 940.69828589 -97.65917969 948.10791016 C-86.46050486 954.44284304 -75.22961975 960.7201417 -64 967 C-59.79133784 969.35357943 -55.58295967 971.7076648 -51.375 974.0625 C-49.83368408 974.92488281 -49.83368408 974.92488281 -48.26123047 975.8046875 C-43.09203049 978.69937429 -37.9281994 981.60310841 -32.7734375 984.5234375 C-31.76104004 985.09698975 -30.74864258 985.67054199 -29.70556641 986.26147461 C-27.819064 987.33126141 -25.93324997 988.40226368 -24.04833984 989.47485352 C-22.29952997 990.46695118 -20.54192679 991.44370835 -18.77587891 992.40478516 C-16 994 -16 994 -12.89208984 996.15380859 C-6.8215263 1000.23302584 -6.8215263 1000.23302584 0.19140625 1000.35717773 C3.6365581 998.73233098 6.70206861 996.85723368 9.875 994.75 C11.05181649 994.02455142 12.23206853 993.30464925 13.41552734 992.59008789 C15.81977933 991.13058639 18.20551988 989.64646513 20.58007812 988.13916016 C25.48458456 985.04348715 30.55577656 982.25201563 35.625 979.4375 C37.50614567 978.37405219 39.38635063 977.3089387 41.265625 976.2421875 C52.54050883 969.85981176 63.8581231 963.5531224 75.16601562 957.22949219 C87.23799859 950.47768207 99.29951026 943.708437 111.33642578 936.89428711 C119.43152664 932.31436491 127.54644164 927.77032338 135.6640625 923.23046875 C142.61969829 919.33841945 149.56381803 915.42660258 156.5 911.5 C169.69637709 904.03067362 182.931318 896.63063555 196.16601562 889.22949219 C208.23799859 882.47768207 220.29951026 875.708437 232.33642578 868.89428711 C240.43152664 864.31436491 248.54644164 859.77032338 256.6640625 855.23046875 C263.61969795 851.33841963 270.56385204 847.42666228 277.5 843.5 C286.53940309 838.38265197 295.59814296 833.3006682 304.6640625 828.23046875 C311.61969829 824.33841945 318.56381803 820.42660258 325.5 816.5 C338.69637709 809.03067362 351.931318 801.63063555 365.16601562 794.22949219 C377.23799859 787.47768207 389.29951026 780.708437 401.33642578 773.89428711 C409.43152664 769.31436491 417.54644164 764.77032338 425.6640625 760.23046875 C432.61969829 756.33841945 439.56381803 752.42660258 446.5 748.5 C459.69637709 741.03067362 472.931318 733.63063555 486.16601562 726.22949219 C496.40763113 720.50139902 506.64864439 714.77230585 516.86694336 709.00268555 C518.77035685 707.92807654 520.67479768 706.85528492 522.58032227 705.78442383 C527.38814266 703.07539793 532.16033487 700.320349 536.89453125 697.484375 C537.84682617 696.92057129 538.79912109 696.35676758 539.78027344 695.77587891 C541.58744968 694.7035618 543.38684582 693.61798267 545.17675781 692.51708984 C545.9859668 692.03965332 546.79517578 691.5622168 547.62890625 691.0703125 C548.33088135 690.64508301 549.03285645 690.21985352 549.75610352 689.78173828 C553.73574755 688.39529282 556.94468142 689.52862373 560.68481445 691.19921875 C561.5687085 691.69035156 562.45260254 692.18148437 563.36328125 692.6875 C564.33201172 693.22117187 565.30074219 693.75484375 566.29882812 694.3046875 C567.29333984 694.86414063 568.28785156 695.42359375 569.3125 696 C570.32634766 696.55945313 571.34019531 697.11890625 572.38476562 697.6953125 C579.81731673 701.81731673 579.81731673 701.81731673 581 703 C581.09798302 705.95828968 581.12991615 708.89324112 581.12025452 711.85194397 C581.12110894 712.79201544 581.12196337 713.73208691 581.12284368 714.70064539 C581.12450136 717.87605137 581.11897243 721.05140546 581.11352539 724.22680664 C581.11324355 726.49293517 581.11340118 728.75906379 581.1139679 731.02519226 C581.11425601 737.19849782 581.10835703 743.37178413 581.10139394 749.54508519 C581.09516272 755.98866889 581.09455679 762.43225298 581.09336853 768.87583923 C581.09060882 779.69791031 581.08435327 790.51997345 581.07543945 801.34204102 C581.06626607 812.49080367 581.05918488 823.63956441 581.05493164 834.78833008 C581.05466892 835.47507634 581.05440619 836.1618226 581.05413551 836.86937935 C581.05283051 840.31444509 581.05156679 843.75951085 581.05032361 847.20457661 C581.0399501 875.80305587 581.02225689 904.40152766 581 933 C580.18892792 933.44704788 579.37785583 933.89409576 578.54220581 934.35469055 C575.46702198 936.04989169 572.39201107 937.74540574 569.31710815 939.44111633 C567.99861203 940.16814569 566.68005158 940.89505838 565.36141968 941.62184143 C547.73243248 951.33857626 530.18006927 961.18988335 512.66259766 971.10620117 C504.5678913 975.68608257 496.45324089 980.22985417 488.3359375 984.76953125 C481.38030205 988.66158037 474.43614796 992.57333772 467.5 996.5 C458.46059691 1001.61734803 449.40185704 1006.6993318 440.3359375 1011.76953125 C433.38030171 1015.66158055 426.43618197 1019.57339742 419.5 1023.5 C406.30362291 1030.96932638 393.068682 1038.36936445 379.83398438 1045.77050781 C367.76200141 1052.52231793 355.70048974 1059.291563 343.66357422 1066.10571289 C335.56847336 1070.68563509 327.45355836 1075.22967662 319.3359375 1079.76953125 C312.38030205 1083.66158037 305.43614796 1087.57333772 298.5 1091.5 C289.46059691 1096.61734803 280.40185704 1101.6993318 271.3359375 1106.76953125 C264.38030171 1110.66158055 257.43618197 1114.57339742 250.5 1118.5 C237.30362291 1125.96932638 224.068682 1133.36936445 210.83398438 1140.77050781 C198.76200141 1147.52231793 186.70048974 1154.291563 174.66357422 1161.10571289 C166.56847336 1165.68563509 158.45355836 1170.22967662 150.3359375 1174.76953125 C143.38030205 1178.66158037 136.43614796 1182.57333772 129.5 1186.5 C120.46059691 1191.61734803 111.40185704 1196.6993318 102.3359375 1201.76953125 C95.38030171 1205.66158055 88.43618197 1209.57339742 81.5 1213.5 C68.30362291 1220.96932638 55.068682 1228.36936445 41.83398438 1235.77050781 C39.72736434 1236.94873168 37.62124348 1238.1278485 35.515625 1239.30786133 C33.43562642 1240.46993765 31.35231985 1241.62611432 29.265625 1242.77612305 C23.97621236 1245.70341557 18.79931769 1248.72685536 13.703125 1251.98046875 C12.6817041 1252.61267334 11.6602832 1253.24487793 10.60791016 1253.89624023 C8.67231183 1255.09913744 6.75840881 1256.33795068 4.87255859 1257.61743164 C2.18438561 1259.2601489 0.09263742 1260.38308837 -3 1261 C-7.1799889 1259.76100996 -10.42469207 1257.44253089 -14 1255 C-15.84925529 1253.97411677 -17.71149441 1252.97129149 -19.5859375 1251.9921875 C-30.13344928 1246.31707413 -40.62039327 1240.55960576 -51.00244141 1234.58691406 C-57.72607054 1230.71997598 -64.48000765 1226.91015791 -71.25 1223.125 C-72.29518799 1222.54057129 -73.34037598 1221.95614258 -74.41723633 1221.35400391 C-76.54526011 1220.1646078 -78.67343469 1218.97548147 -80.80175781 1217.78662109 C-95.00028851 1209.85495333 -109.18695411 1201.90320731 -123.34082031 1193.89208984 C-134.53949514 1187.55715696 -145.77038025 1181.2798583 -157 1175 C-170.12769874 1167.65869284 -183.2472626 1160.30411895 -196.33642578 1152.89428711 C-203.37975964 1148.90941754 -210.43706584 1144.95001133 -217.5 1141 C-226.4593421 1135.98940497 -235.40281974 1130.95170949 -244.3359375 1125.89453125 C-251.37946347 1121.90963231 -258.43690717 1117.95010006 -265.5 1114 C-273.51122051 1109.51965075 -281.5121806 1105.02193908 -289.5 1100.5 C-301.64410093 1093.62627603 -313.82062923 1086.81098063 -326 1080 C-339.12769874 1072.65869284 -352.2472626 1065.30411895 -365.33642578 1057.89428711 C-372.37975964 1053.90941754 -379.43706584 1049.95001133 -386.5 1046 C-395.4593421 1040.98940497 -404.40281974 1035.95170949 -413.3359375 1030.89453125 C-420.37946347 1026.90963231 -427.43690717 1022.95010006 -434.5 1019 C-442.51122051 1014.51965075 -450.5121806 1010.02193908 -458.5 1005.5 C-470.64410093 998.62627603 -482.82062923 991.81098063 -495 985 C-508.12483625 977.66029361 -521.24247526 970.30893669 -534.32763672 962.89868164 C-540.38943472 959.46817227 -546.46352284 956.06042733 -552.54492188 952.66479492 C-561.39319871 947.72369822 -570.22519062 942.75817523 -579 937.6875 C-579.80147461 937.22520996 -580.60294922 936.76291992 -581.42871094 936.28662109 C-586.87462324 933.12537676 -586.87462324 933.12537676 -588 932 C-588.08868299 929.04294679 -588.11520296 926.10934944 -588.09765625 923.15234375 C-588.0962413 922.2659169 -588.09482635 921.37949005 -588.09336853 920.46620178 C-588.08775215 917.62326746 -588.07519691 914.78041069 -588.0625 911.9375 C-588.05748711 910.01497509 -588.05292384 908.09244896 -588.04882812 906.16992188 C-588.03777741 901.44658451 -588.02050183 896.72330542 -588 892 C-584.40150563 889.94621959 -580.79048298 887.91673954 -577.16625977 885.90869141 C-575.93570801 885.22251254 -574.70875338 884.52984057 -573.4855957 883.83056641 C-571.72476127 882.82539661 -569.95223212 881.84442928 -568.17578125 880.8671875 C-567.11270752 880.27019043 -566.04963379 879.67319336 -564.9543457 879.05810547 C-562 878 -562 878 -559.48608398 878.62060547 C-558.66567627 879.07580566 -557.84526855 879.53100586 -557 880 C-556.06510742 880.48629883 -555.13021484 880.97259766 -554.16699219 881.47363281 C-553.13735352 882.04436523 -552.10771484 882.61509766 -551.046875 883.203125 C-550.19408463 883.6743705 -550.19408463 883.6743705 -549.32406616 884.15513611 C-547.46440971 885.18383772 -545.60716442 886.2168072 -543.75 887.25 C-542.44525145 887.97324667 -541.1403998 888.69630738 -539.83544922 889.41918945 C-535.88754298 891.60785103 -531.94319585 893.80286544 -528 896 C-526.2998877 896.94721924 -526.2998877 896.94721924 -524.56542969 897.91357422 C-512.5723696 904.60277873 -500.6091946 911.34438368 -488.65820312 918.10839844 C-477.45995299 924.44334282 -466.22930171 930.72031955 -455 937 C-441.8708703 944.34210739 -428.75034094 951.69828589 -415.65917969 959.10791016 C-405.51007325 964.84911696 -395.33414242 970.5421661 -385.15722656 976.23388672 C-378.89671092 979.73594132 -372.63851388 983.24213753 -366.37988281 986.74755859 C-361.14724952 989.67812785 -355.91405778 992.60769044 -350.6796875 995.53515625 C-339.65829479 1001.7005888 -328.64954681 1007.8873397 -317.65917969 1014.10791016 C-307.51007325 1019.84911696 -297.33414242 1025.5421661 -287.15722656 1031.23388672 C-280.89671092 1034.73594132 -274.63851388 1038.24213753 -268.37988281 1041.74755859 C-263.14724952 1044.67812785 -257.91405778 1047.60769044 -252.6796875 1050.53515625 C-241.65829479 1056.7005888 -230.64954681 1062.8873397 -219.65917969 1069.10791016 C-208.46050486 1075.44284304 -197.22961975 1081.7201417 -186 1088 C-172.8708703 1095.34210739 -159.75034094 1102.69828589 -146.65917969 1110.10791016 C-136.51007325 1115.84911696 -126.33414242 1121.5421661 -116.15722656 1127.23388672 C-109.89671092 1130.73594132 -103.63851388 1134.24213753 -97.37988281 1137.74755859 C-92.14724952 1140.67812785 -86.91405778 1143.60769044 -81.6796875 1146.53515625 C-70.66916683 1152.69450692 -59.66986711 1158.87270547 -48.69213867 1165.09033203 C-43.58773624 1167.9793172 -38.47638905 1170.85522458 -33.35546875 1173.71484375 C-32.24300781 1174.33617187 -31.13054688 1174.9575 -29.984375 1175.59765625 C-27.85625673 1176.78526728 -25.72740288 1177.97156161 -23.59765625 1179.15625 C-22.62054687 1179.70152344 -21.6434375 1180.24679687 -20.63671875 1180.80859375 C-19.6936084 1181.33308105 -18.75049805 1181.85756836 -17.77880859 1182.39794922 C-14.18645784 1184.46902685 -10.71581703 1186.71755564 -7.26489258 1189.01586914 C-4.35539939 1190.28008894 -2.98982335 1189.96270956 0 1189 C2.13289445 1188.02920263 2.13289445 1188.02920263 4.203125 1186.76953125 C5.00524414 1186.30369629 5.80736328 1185.83786133 6.63378906 1185.35791016 C7.49713867 1184.8479248 8.36048828 1184.33793945 9.25 1183.8125 C11.14519051 1182.7111327 13.04105211 1181.61091956 14.9375 1180.51171875 C16.42636719 1179.64619385 16.42636719 1179.64619385 17.9453125 1178.76318359 C23.01927044 1175.83446522 28.13439586 1172.98015559 33.25 1170.125 C34.29510742 1169.54081299 35.34021484 1168.95662598 36.41699219 1168.35473633 C38.54799956 1167.16358209 40.67918496 1165.97274629 42.81054688 1164.78222656 C48.04251949 1161.85866563 53.27112834 1158.9291023 58.5 1156 C64.77256331 1152.48671658 71.04554122 1148.97418249 77.3203125 1145.46484375 C88.34027567 1139.30021089 99.34796384 1133.11490289 110.33642578 1126.89428711 C118.43152664 1122.31436491 126.54644164 1117.77032338 134.6640625 1113.23046875 C141.61969795 1109.33841963 148.56385204 1105.42666228 155.5 1101.5 C164.53940309 1096.38265197 173.59814296 1091.3006682 182.6640625 1086.23046875 C189.61969795 1082.33841963 196.56385204 1078.42666228 203.5 1074.5 C212.53940309 1069.38265197 221.59814296 1064.3006682 230.6640625 1059.23046875 C237.61969795 1055.33841963 244.56385204 1051.42666228 251.5 1047.5 C260.53940309 1042.38265197 269.59814296 1037.3006682 278.6640625 1032.23046875 C285.61969795 1028.33841963 292.56385204 1024.42666228 299.5 1020.5 C308.53940309 1015.38265197 317.59814296 1010.3006682 326.6640625 1005.23046875 C333.61969795 1001.33841963 340.56385204 997.42666228 347.5 993.5 C356.53940309 988.38265197 365.59814296 983.3006682 374.6640625 978.23046875 C381.61969795 974.33841963 388.56385204 970.42666228 395.5 966.5 C404.53940309 961.38265197 413.59814296 956.3006682 422.6640625 951.23046875 C429.61969829 947.33841945 436.56381803 943.42660258 443.5 939.5 C451.44760148 935.001551 459.40599839 930.52293332 467.375 926.0625 C468.91933716 925.19806274 468.91933716 925.19806274 470.49487305 924.31616211 C475.90014222 921.29161989 481.30699914 918.26993466 486.71484375 915.25 C487.81973145 914.6324585 488.92461914 914.01491699 490.06298828 913.37866211 C492.15066908 912.21185088 494.2388438 911.04592269 496.32763672 909.88110352 C498.203815 908.83222512 500.06582651 907.75738477 501.90898132 906.65150452 C505 905 505 905 508.13877869 904.09786987 C511.93555164 902.7437503 514.77997753 901.3993408 517 898 C519.42114627 889.40342132 518.53154419 879.89999447 518.390625 871.06640625 C518.39068135 868.38581923 518.39543531 865.70565251 518.40643311 863.02513123 C518.42210934 856.69928216 518.37693303 850.37540626 518.30961108 844.04995531 C518.23591778 836.84553393 518.23048507 829.64155942 518.23064089 822.43682015 C518.22943946 807.6239119 518.14298716 792.81223481 518 778 C516.91952188 778.6052224 516.91952188 778.6052224 515.81721592 779.22267151 C513.11385105 780.73689378 510.41044682 782.25104576 507.70701694 783.76515198 C505.97391132 784.73583741 504.24085004 785.70660204 502.50778961 786.67736816 C496.98620953 789.76977 491.46367044 792.86031652 485.93359375 795.9375 C475.87116827 801.54138894 465.86472911 807.22209625 455.9375 813.0625 C446.98920856 818.32421845 437.93325626 823.34090858 428.78662109 828.24853516 C421.4554739 832.18889207 414.21226263 836.26170574 406.9987793 840.4128418 C400.23456489 844.30345765 393.4372609 848.13167992 386.625 851.9375 C378.53123 856.46087257 370.44532415 860.9974124 362.375 865.5625 C361.43269531 866.09552734 360.49039063 866.62855469 359.51953125 867.17773438 C356.67946681 868.78476672 353.83967774 870.39228445 351 872 C347.20870223 874.14648595 343.41706473 876.29236927 339.625 878.4375 C338.68052002 878.97197754 337.73604004 879.50645508 336.76293945 880.05712891 C331.79639505 882.86476317 326.82335767 885.66008636 321.83984375 888.4375 C311.47820141 894.21363669 301.16178491 900.04600435 290.9375 906.0625 C281.98926668 911.32431326 272.93325213 916.34091079 263.78662109 921.24853516 C256.4554739 925.18889207 249.21226263 929.26170574 241.9987793 933.4128418 C235.23456489 937.30345765 228.4372609 941.13167992 221.625 944.9375 C213.53123 949.46087257 205.44532415 953.9974124 197.375 958.5625 C196.43269531 959.09552734 195.49039063 959.62855469 194.51953125 960.17773438 C191.67946681 961.78476672 188.83967774 963.39228445 186 965 C182.20870223 967.14648595 178.41706473 969.29236927 174.625 971.4375 C173.68052002 971.97197754 172.73604004 972.50645508 171.76293945 973.05712891 C166.79639505 975.86476317 161.82335767 978.66008636 156.83984375 981.4375 C146.47820141 987.21363669 136.16178491 993.04600435 125.9375 999.0625 C116.98926668 1004.32431326 107.93325213 1009.34091079 98.78662109 1014.24853516 C91.4554739 1018.18889207 84.21226263 1022.26170574 76.9987793 1026.4128418 C70.23456489 1030.30345765 63.4372609 1034.13167992 56.625 1037.9375 C48.53122091 1042.46087765 40.44625259 1046.9990449 32.375 1051.5625 C31.44792236 1052.08465088 30.52084473 1052.60680176 29.56567383 1053.14477539 C24.55153375 1055.9724944 19.5599897 1058.83384518 14.58984375 1061.73828125 C13.53941895 1062.34663818 12.48899414 1062.95499512 11.40673828 1063.58178711 C9.38490857 1064.75350395 7.36866137 1065.93492146 5.35888672 1067.12719727 C4.45283691 1067.64983154 3.54678711 1068.17246582 2.61328125 1068.7109375 C1.81704346 1069.17806152 1.02080566 1069.64518555 0.20043945 1070.12646484 C-2.45921413 1071.1822998 -3.36872034 1071.04319647 -6 1070 C-7.6326587 1069.21610124 -9.24166858 1068.3821227 -10.83203125 1067.515625 C-11.78327881 1066.99943604 -12.73452637 1066.48324707 -13.71459961 1065.95141602 C-14.73690674 1065.38994873 -15.75921387 1064.82848145 -16.8125 1064.25 C-17.88056885 1063.66726318 -18.9486377 1063.08452637 -20.04907227 1062.48413086 C-29.13157784 1057.51284405 -38.15030802 1052.43156453 -47.15234375 1047.31640625 C-53.2532039 1043.85064007 -59.37530306 1040.42341759 -65.5 1037 C-74.45947138 1031.98963739 -83.40282097 1026.95170879 -92.3359375 1021.89453125 C-99.37946347 1017.90963231 -106.43690717 1013.95010006 -113.5 1010 C-122.4593421 1004.98940497 -131.40281974 999.95170949 -140.3359375 994.89453125 C-147.37946347 990.90963231 -154.43690717 986.95010006 -161.5 983 C-169.51122051 978.51965075 -177.5121806 974.02193908 -185.5 969.5 C-197.64410093 962.62627603 -209.82062923 955.81098063 -222 949 C-235.12769874 941.65869284 -248.2472626 934.30411895 -261.33642578 926.89428711 C-268.37975964 922.90941754 -275.43706584 918.95001133 -282.5 915 C-291.4593421 909.98940497 -300.40281974 904.95170949 -309.3359375 899.89453125 C-316.37946347 895.90963231 -323.43690717 891.95010006 -330.5 888 C-338.51122051 883.51965075 -346.5121806 879.02193908 -354.5 874.5 C-366.64410093 867.62627603 -378.82062923 860.81098063 -391 854 C-404.12769874 846.65869284 -417.2472626 839.30411895 -430.33642578 831.89428711 C-437.37975964 827.90941754 -444.43706584 823.95001133 -451.5 820 C-460.4593421 814.98940497 -469.40281974 809.95170949 -478.3359375 804.89453125 C-485.37946347 800.90963231 -492.43690717 796.95010006 -499.5 793 C-507.51122051 788.51965075 -515.5121806 784.02193908 -523.5 779.5 C-531.44760158 775.00155094 -539.40600825 770.52295108 -547.375 766.0625 C-548.39803223 765.48983398 -549.42106445 764.91716797 -550.47509766 764.32714844 C-555.4023594 761.56998021 -560.33078044 758.81490272 -565.26083374 756.06272888 C-567.00825783 755.08705641 -568.75535185 754.11079287 -570.50244141 753.13452148 C-572.70725745 751.90251229 -574.91263795 750.67151255 -577.11865234 749.44165039 C-578.10816895 748.88856201 -579.09768555 748.33547363 -580.1171875 747.765625 C-581.42598877 747.03520996 -581.42598877 747.03520996 -582.76123047 746.29003906 C-584.54790094 745.26051161 -586.28425698 744.14382868 -588 743 C-588.2940672 739.94249885 -588.39083752 737.08764794 -588.36076355 734.02780151 C-588.36332682 733.08687562 -588.3658901 732.14594973 -588.36853105 731.17651093 C-588.37349686 728.004059 -588.35692994 724.8320765 -588.34057617 721.65966797 C-588.3397305 719.39339204 -588.34020386 717.12711529 -588.34190369 714.86083984 C-588.34276742 708.69166216 -588.32508057 702.52265807 -588.30418181 696.35352087 C-588.28547785 689.91262018 -588.28366954 683.47171589 -588.28010559 677.03079224 C-588.27182889 666.21466698 -588.25306708 655.3986132 -588.22631836 644.58251953 C-588.19879245 633.44059571 -588.1775517 622.29868923 -588.16479492 611.15673828 C-588.16361267 610.12701298 -588.16361267 610.12701298 -588.16240653 609.07648514 C-588.15849149 605.63269013 -588.15470035 602.188895 -588.15097082 598.74509978 C-588.11985723 570.16335663 -588.06678343 541.58168081 -588 513 C-587.49138428 512.71801758 -586.98276855 512.43603516 -586.45874023 512.14550781 C-584.11806972 510.84746821 -581.77778284 509.54873841 -579.4375 508.25 C-578.63763672 507.8065625 -577.83777344 507.363125 -577.01367188 506.90625 C-575.8293457 506.24882813 -575.8293457 506.24882813 -574.62109375 505.578125 C-573.83994705 505.14554886 -573.05880035 504.71297272 -572.25398254 504.26728821 C-570.17917544 503.10074032 -568.1346365 501.89251283 -566.08862305 500.67651367 C-563 499 -563 499 -560.14453125 498.92578125 C-555.64369982 500.46333236 -551.76225101 502.75693329 -547.6875 505.1875 C-545.8014785 506.28895519 -543.91472894 507.38916443 -542.02734375 508.48828125 C-540.54790283 509.35380615 -540.54790283 509.35380615 -539.03857422 510.23681641 C-533.97523731 513.17490247 -528.86247556 516.02355734 -523.75 518.875 C-521.63278669 520.05854757 -519.5155994 521.2421417 -517.3984375 522.42578125 C-516.34237305 523.01568848 -515.28630859 523.6055957 -514.19824219 524.21337891 C-500.00029083 532.14472303 -485.81201922 540.09241777 -471.66137695 548.10791016 C-466.73175857 550.89819651 -461.79567581 553.67605101 -456.84765625 556.43359375 C-446.48318761 562.21065634 -436.16429901 568.04452492 -425.9375 574.0625 C-416.98926668 579.32431326 -407.93325213 584.34091079 -398.78662109 589.24853516 C-391.45402643 593.18967006 -384.20968701 597.26378807 -376.99438477 601.41503906 C-370.27169012 605.2811093 -363.51890874 609.09044794 -356.75 612.875 C-355.70481201 613.45942871 -354.65962402 614.04385742 -353.58276367 614.64599609 C-351.45473989 615.8353922 -349.32656531 617.02451853 -347.19824219 618.21337891 C-333.00114452 626.14424614 -318.81539433 634.09430638 -304.66357422 642.10571289 C-297.62024036 646.09058246 -290.56293416 650.04998867 -283.5 654 C-274.5406579 659.01059503 -265.59718026 664.04829051 -256.6640625 669.10546875 C-249.62053653 673.09036769 -242.56309283 677.04989994 -235.5 681 C-226.5406579 686.01059503 -217.59718026 691.04829051 -208.6640625 696.10546875 C-201.62053653 700.09036769 -194.56309283 704.04989994 -187.5 708 C-178.5406579 713.01059503 -169.59718026 718.04829051 -160.6640625 723.10546875 C-153.62053653 727.09036769 -146.56309283 731.04989994 -139.5 735 C-130.5406579 740.01059503 -121.59718026 745.04829051 -112.6640625 750.10546875 C-105.62053653 754.09036769 -98.56309283 758.04989994 -91.5 762 C-82.5406579 767.01059503 -73.59718026 772.04829051 -64.6640625 777.10546875 C-57.62053583 781.09036809 -50.5630226 785.04977342 -43.5 789 C-35.03402654 793.73648727 -26.57390788 798.48312724 -18.125 803.25 C-17.14982422 803.79914062 -16.17464844 804.34828125 -15.16992188 804.9140625 C-14.27080078 805.42195312 -13.37167969 805.92984375 -12.4453125 806.453125 C-11.65656738 806.89817383 -10.86782227 807.34322266 -10.05517578 807.80175781 C-8.33259654 808.80608413 -6.65909047 809.89393969 -5 811 C-1.09663053 810.66001612 1.77638955 809.21861314 5.1484375 807.296875 C6.14166016 806.73548828 7.13488281 806.17410156 8.15820312 805.59570312 C9.21974609 804.98662109 10.28128906 804.37753906 11.375 803.75 C12.48552734 803.12029297 13.59605469 802.49058594 14.74023438 801.84179688 C17.04425838 800.53474408 19.34665526 799.22481912 21.64746094 797.91210938 C25.66005789 795.6235382 29.68120393 793.3503668 33.70361328 791.07910156 C35.58010171 790.01946063 37.45607208 788.95890178 39.33154297 787.89746094 C47.42783074 783.31570123 55.54475194 778.77126836 63.6640625 774.23046875 C70.61969795 770.33841963 77.56385204 766.42666228 84.5 762.5 C93.53940309 757.38265197 102.59814296 752.3006682 111.6640625 747.23046875 C118.61969795 743.33841963 125.56385204 739.42666228 132.5 735.5 C141.53940309 730.38265197 150.59814296 725.3006682 159.6640625 720.23046875 C166.61969795 716.33841963 173.56385204 712.42666228 180.5 708.5 C189.53940309 703.38265197 198.59814296 698.3006682 207.6640625 693.23046875 C214.61969795 689.33841963 221.56385204 685.42666228 228.5 681.5 C237.53940309 676.38265197 246.59814296 671.3006682 255.6640625 666.23046875 C262.61969829 662.33841945 269.56381803 658.42660258 276.5 654.5 C289.69637709 647.03067362 302.931318 639.63063555 316.16601562 632.22949219 C328.23799859 625.47768207 340.29951026 618.708437 352.33642578 611.89428711 C360.43152664 607.31436491 368.54644164 602.77032338 376.6640625 598.23046875 C383.61969795 594.33841963 390.56385204 590.42666228 397.5 586.5 C406.53940309 581.38265197 415.59814296 576.3006682 424.6640625 571.23046875 C431.61969795 567.33841963 438.56385204 563.42666228 445.5 559.5 C453.48778096 554.97799177 461.4888508 550.48047666 469.5 546 C477.77888649 541.36838749 486.05165724 536.72623007 494.3125 532.0625 C495.21226563 531.55525391 496.11203125 531.04800781 497.0390625 530.52539062 C498.74582027 529.56075642 500.4383427 528.57029658 502.11231995 527.54983521 C505 526 505 526 508.09605408 525.11923218 C511.905609 523.75788724 514.7655463 522.40741598 517 519 C519.42609258 510.40667086 518.53151005 500.89785455 518.390625 492.06640625 C518.39068135 489.38581923 518.39543531 486.70565251 518.40643311 484.02513123 C518.42210934 477.69928216 518.37693303 471.37540626 518.30961108 465.04995531 C518.23591778 457.84553393 518.23048507 450.64155942 518.23064089 443.43682015 C518.22943946 428.6239119 518.14298716 413.81223481 518 399 C514.08349408 401.18415769 510.16857781 403.37115028 506.25390625 405.55859375 C505.16259399 406.1671521 504.07128174 406.77571045 502.94689941 407.40270996 C495.55700997 411.53432376 488.22999498 415.76159173 480.9375 420.0625 C471.98575557 425.31842977 462.93346545 430.34079633 453.78662109 435.24853516 C446.4554739 439.18889207 439.21226263 443.26170574 431.9987793 447.4128418 C425.23456489 451.30345765 418.4372609 455.13167992 411.625 458.9375 C403.53123 463.46087257 395.44532415 467.9974124 387.375 472.5625 C386.43269531 473.09552734 385.49039063 473.62855469 384.51953125 474.17773438 C381.67946681 475.78476672 378.83967774 477.39228445 376 479 C372.20870223 481.14648595 368.41706473 483.29236927 364.625 485.4375 C363.68052002 485.97197754 362.73604004 486.50645508 361.76293945 487.05712891 C356.79639505 489.86476317 351.82335767 492.66008636 346.83984375 495.4375 C336.47820141 501.21363669 326.16178491 507.04600435 315.9375 513.0625 C306.98926668 518.32431326 297.93325213 523.34091079 288.78662109 528.24853516 C281.4554739 532.18889207 274.21226263 536.26170574 266.9987793 540.4128418 C260.23456489 544.30345765 253.4372609 548.13167992 246.625 551.9375 C238.53123 556.46087257 230.44532415 560.9974124 222.375 565.5625 C221.43269531 566.09552734 220.49039063 566.62855469 219.51953125 567.17773438 C216.67946681 568.78476672 213.83967774 570.39228445 211 572 C207.20870223 574.14648595 203.41706473 576.29236927 199.625 578.4375 C198.68052002 578.97197754 197.73604004 579.50645508 196.76293945 580.05712891 C191.79639505 582.86476317 186.82335767 585.66008636 181.83984375 588.4375 C171.47820141 594.21363669 161.16178491 600.04600435 150.9375 606.0625 C141.98926668 611.32431326 132.93325213 616.34091079 123.78662109 621.24853516 C116.4554739 625.18889207 109.21226263 629.26170574 101.9987793 633.4128418 C95.23456489 637.30345765 88.4372609 641.13167992 81.625 644.9375 C73.53123 649.46087257 65.44532415 653.9974124 57.375 658.5625 C56.43269531 659.09552734 55.49039063 659.62855469 54.51953125 660.17773438 C51.67946681 661.78476672 48.83967774 663.39228445 46 665 C44.10941193 666.07037774 42.21878688 667.14069015 40.328125 668.2109375 C39.38710938 668.74372314 38.44609375 669.27650879 37.4765625 669.82543945 C35.58703953 670.89363467 33.696426 671.95990326 31.8046875 673.02416992 C27.15647699 675.63998222 22.51961416 678.27171966 17.90994263 680.95503235 C15.07055177 682.60470881 12.22145652 684.23755345 9.375 685.875 C8.31361816 686.50075928 7.25223633 687.12651855 6.15869141 687.77124023 C4.66861572 688.62310913 4.66861572 688.62310913 3.1484375 689.4921875 C2.27364746 690.00120605 1.39885742 690.51022461 0.49755859 691.03466797 C-2.55337809 692.21388631 -3.9175125 692.0113364 -7 691 C-9.28222656 689.9152832 -9.28222656 689.9152832 -11.640625 688.55078125 C-12.97963867 687.78411133 -12.97963867 687.78411133 -14.34570312 687.00195312 C-15.30412109 686.44443359 -16.26253906 685.88691406 -17.25 685.3125 C-19.32776679 684.12046915 -21.40590463 682.92908489 -23.484375 681.73828125 C-25.09602539 680.81136475 -25.09602539 680.81136475 -26.74023438 679.86572266 C-31.9717131 676.87149255 -37.23628033 673.93705673 -42.5 671 C-51.45987506 665.99036352 -60.40282492 660.95170655 -69.3359375 655.89453125 C-76.37946347 651.90963231 -83.43690717 647.95010006 -90.5 644 C-98.51122051 639.51965075 -106.5121806 635.02193908 -114.5 630.5 C-126.64410093 623.62627603 -138.82062923 616.81098063 -151 610 C-164.12769874 602.65869284 -177.2472626 595.30411895 -190.33642578 587.89428711 C-197.37975964 583.90941754 -204.43706584 579.95001133 -211.5 576 C-220.4593421 570.98940497 -229.40281974 565.95170949 -238.3359375 560.89453125 C-245.37946347 556.90963231 -252.43690717 552.95010006 -259.5 549 C-267.51122051 544.51965075 -275.5121806 540.02193908 -283.5 535.5 C-295.64410093 528.62627603 -307.82062923 521.81098063 -320 515 C-333.12769874 507.65869284 -346.2472626 500.30411895 -359.33642578 492.89428711 C-366.37975964 488.90941754 -373.43706584 484.95001133 -380.5 481 C-389.4593421 475.98940497 -398.40281974 470.95170949 -407.3359375 465.89453125 C-414.37946347 461.90963231 -421.43690717 457.95010006 -428.5 454 C-436.51122051 449.51965075 -444.5121806 445.02193908 -452.5 440.5 C-464.64410093 433.62627603 -476.82062923 426.81098063 -489 420 C-502.12769874 412.65869284 -515.2472626 405.30411895 -528.33642578 397.89428711 C-535.37976034 393.90941715 -542.43713607 389.95013784 -549.5 386 C-557.96597346 381.26351273 -566.42609212 376.51687276 -574.875 371.75 C-576.33776367 370.92628906 -576.33776367 370.92628906 -577.83007812 370.0859375 C-578.72919922 369.57804687 -579.62832031 369.07015625 -580.5546875 368.546875 C-581.34343262 368.10182617 -582.13217773 367.65677734 -582.94482422 367.19824219 C-584.66740346 366.19391587 -586.34090953 365.10606031 -588 364 C-588.26667539 361.16272675 -588.34791234 358.54616955 -588.29296875 355.7109375 C-588.28872391 354.89251373 -588.28447906 354.07408997 -588.28010559 353.23086548 C-588.26328679 350.61191164 -588.22562974 347.99372198 -588.1875 345.375 C-588.17245726 343.6015736 -588.15876814 341.82813516 -588.14648438 340.0546875 C-588.11337292 335.7028297 -588.06156952 331.35154449 -588 327 C-587.38294189 326.6690332 -586.76588379 326.33806641 -586.13012695 325.99707031 C-574.34117954 319.6651821 -562.60340178 313.26509586 -551.00463867 306.59057617 C-544.23851764 302.69873941 -537.43926126 298.86937619 -530.625 295.0625 C-522.57152268 290.56229954 -514.52791871 286.04564628 -506.5 281.5 C-498.47208009 276.95435304 -490.42836197 272.43790816 -482.375 267.9375 C-474.72785139 263.66298819 -467.09976573 259.3581974 -459.5 255 C-451.94029786 250.66562636 -444.35491173 246.3795619 -436.75 242.125 C-435.18100952 241.24714844 -435.18100952 241.24714844 -433.58032227 240.3515625 C-428.28946162 237.39331901 -422.99566442 234.4404188 -417.69921875 231.4921875 C-407.38303918 225.7422253 -397.11709744 219.9263775 -386.9375 213.9375 C-377.98920856 208.67578155 -368.93325626 203.65909142 -359.78662109 198.75146484 C-352.4554739 194.81110793 -345.21226263 190.73829426 -337.9987793 186.5871582 C-331.2345655 182.69654271 -324.43728672 178.86827309 -317.625 175.0625 C-308.62249041 170.03199005 -299.63538624 164.97546958 -290.66235352 159.89257812 C-285.73237136 157.10219726 -280.79599316 154.32412584 -275.84765625 151.56640625 C-265.48318761 145.78934366 -255.16429901 139.95547508 -244.9375 133.9375 C-235.98926668 128.67568674 -226.93325213 123.65908921 -217.78662109 118.75146484 C-210.4554739 114.81110793 -203.21226263 110.73829426 -195.9987793 106.5871582 C-189.2345655 102.69654271 -182.43728672 98.86827309 -175.625 95.0625 C-167.57152226 90.5622993 -159.52795819 86.04557695 -151.5 81.5 C-143.51225862 76.97792323 -135.51118864 72.4804047 -127.5 68 C-115.64605716 61.36959572 -103.81942301 54.69169952 -92 48 C-79.13565657 40.71670701 -66.25838197 33.45778263 -53.35620117 26.24169922 C-47.18817778 22.79029727 -41.02668576 19.32772675 -34.87451172 15.84814453 C-32.94095726 14.75487459 -31.00641123 13.66335618 -29.07080078 12.57373047 C-24.75062798 10.13913703 -20.44731944 7.68467927 -16.18359375 5.15234375 C-15.08253296 4.50712769 -15.08253296 4.50712769 -13.95922852 3.84887695 C-12.61794508 3.06126376 -11.28314638 2.2624454 -9.95678711 1.44995117 C-6.1030602 -0.79642378 -4.24575008 -1.20033971 0 0 Z " fill="#FE3620" transform="translate(608,1)"/>
</svg>
