<?xml version="1.0" encoding="UTF-8"?>
<svg version="1.1" xmlns="http://www.w3.org/2000/svg" width="172" height="50">
<path d="M0 0 C1.65 0 3.3 0 5 0 C5 1.65 5 3.3 5 5 C3.35 5 1.7 5 0 5 C0.99 7.31 1.98 9.62 3 12 C4.32 11.01 5.64 10.02 7 9 C7.66 9.33 8.32 9.66 9 10 C8.175 11.010625 7.35 12.02125 6.5 13.0625 C3.77358922 16.85510495 3.83592069 19.3237396 4 24 C2.70438319 30.96049457 -1.30408203 35.03812158 -7 39 C-10.31997939 40.1066598 -12.94306627 40.20240272 -16.4375 40.25 C-17.57058594 40.27578125 -18.70367187 40.3015625 -19.87109375 40.328125 C-23.24142471 39.97468205 -24.5598938 39.27823183 -27 37 C-21.2190161 31.66917468 -15.40900977 26.56507679 -9 22 C-11.20992759 23.2472468 -13.41793663 24.49770247 -15.625 25.75 C-16.24246094 26.09804688 -16.85992187 26.44609375 -17.49609375 26.8046875 C-21.44826266 29.05118351 -25.24591788 31.43567314 -29 34 C-30.9375 33.1875 -30.9375 33.1875 -33 32 C-33.33 31.01 -33.66 30.02 -34 29 C-30.37 27.02 -26.74 25.04 -23 23 C-24.4025 23.515625 -25.805 24.03125 -27.25 24.5625 C-30.62215325 25.80226223 -32.57056481 26.18771723 -36 25 C-35.67 23.68 -35.34 22.36 -35 21 C-35.99 21 -36.98 21 -38 21 C-40 21 -42 21 -44 21 C-41.08235 19.0549 -39.37462715 18.54723683 -36 18 C-35.86464844 17.41992188 -35.72929688 16.83984375 -35.58984375 16.2421875 C-33.61939401 9.09193274 -30.35949713 5.70049188 -24.15234375 1.85546875 C-21.34824355 0.74095343 -19.01083548 0.73494582 -16 0.75 C-14.453125 0.74226562 -14.453125 0.74226562 -12.875 0.734375 C-10.00816002 0.99924608 -8.48602514 1.65074704 -6 3 C-2.83304044 3.16724737 -2.83304044 3.16724737 0 3 C0 2.01 0 1.02 0 0 Z " fill="#6DC8F1" transform="translate(51,6)"/>
<path d="M0 0 C3.46679688 0.04882812 3.46679688 0.04882812 6.93359375 0.09765625 C9.28012077 6.69668986 11.0498007 13.33856073 12.62109375 20.16015625 C12.95850586 21.60165039 12.95850586 21.60165039 13.30273438 23.07226562 C13.85012014 25.41321327 14.39366616 27.75497933 14.93359375 30.09765625 C12.29359375 30.09765625 9.65359375 30.09765625 6.93359375 30.09765625 C6.60359375 27.45765625 6.27359375 24.81765625 5.93359375 22.09765625 C3.62359375 22.09765625 1.31359375 22.09765625 -1.06640625 22.09765625 C-1.39640625 24.73765625 -1.72640625 27.37765625 -2.06640625 30.09765625 C-4.37640625 30.09765625 -6.68640625 30.09765625 -9.06640625 30.09765625 C-8.4670426 23.39568093 -7.24666047 17.10744119 -5.56640625 10.59765625 C-5.34082031 9.69273438 -5.11523438 8.7878125 -4.8828125 7.85546875 C-2.92452919 0.13821026 -2.92452919 0.13821026 0 0 Z M1.93359375 7.09765625 C1.27359375 10.39765625 0.61359375 13.69765625 -0.06640625 17.09765625 C1.25359375 17.09765625 2.57359375 17.09765625 3.93359375 17.09765625 C3.60359375 13.79765625 3.27359375 10.49765625 2.93359375 7.09765625 C2.60359375 7.09765625 2.27359375 7.09765625 1.93359375 7.09765625 Z " fill="#123E8F" transform="translate(144.06640625,12.90234375)"/>
<path d="M0 0 C0.66 0.33 1.32 0.66 2 1 C1.175 2.010625 0.35 3.02125 -0.5 4.0625 C-3.22641078 7.85510495 -3.16407931 10.3237396 -3 15 C-4.29561681 21.96049457 -8.30408203 26.03812158 -14 30 C-17.31997939 31.1066598 -19.94306627 31.20240272 -23.4375 31.25 C-24.57058594 31.27578125 -25.70367187 31.3015625 -26.87109375 31.328125 C-30.24142471 30.97468205 -31.5598938 30.27823183 -34 28 C-26.86504667 21.34180623 -19.39415143 15.28526901 -11.68652344 9.31347656 C-7.75647099 6.2527235 -3.88180671 3.12154503 0 0 Z " fill="#0E2D53" transform="translate(58,15)"/>
<path d="M0 0 C2.81770554 2.72965224 2.78386644 5.11914046 3 8.9375 C0.69 8.9375 -1.62 8.9375 -4 8.9375 C-4.33 7.2875 -4.66 5.6375 -5 3.9375 C-6.32 4.2675 -7.64 4.5975 -9 4.9375 C-9 11.5375 -9 18.1375 -9 24.9375 C-7.68 24.6075 -6.36 24.2775 -5 23.9375 C-4.67 22.6175 -4.34 21.2975 -4 19.9375 C-1.69 19.9375 0.62 19.9375 3 19.9375 C2.91445397 25.15580768 2.91445397 25.15580768 2 27.9375 C-2.69836187 31.16762378 -6.42903267 31.19568854 -11.984375 30.5546875 C-14.4183093 29.80941304 -15.42593035 28.91931058 -17 26.9375 C-18.33495118 22.93264647 -18.18416695 19.25547418 -18.1875 15.0625 C-18.19974609 14.25941406 -18.21199219 13.45632812 -18.22460938 12.62890625 C-18.24429824 4.66147753 -18.24429824 4.66147753 -16 0.9375 C-11.27510622 -2.36892673 -5.22042476 -1.84890043 0 0 Z " fill="#3573AF" transform="translate(130,13.0625)"/>
<path d="M0 0 C2.0625 1.5625 2.0625 1.5625 3.0625 2.5625 C3.10330783 4.56208364 3.10504356 6.56295254 3.0625 8.5625 C0.7525 8.5625 -1.5575 8.5625 -3.9375 8.5625 C-4.2675 7.2425 -4.5975 5.9225 -4.9375 4.5625 C-6.2575 4.5625 -7.5775 4.5625 -8.9375 4.5625 C-8.9375 11.4925 -8.9375 18.4225 -8.9375 25.5625 C-7.6175 25.2325 -6.2975 24.9025 -4.9375 24.5625 C-4.6075 22.9125 -4.2775 21.2625 -3.9375 19.5625 C-1.6275 19.5625 0.6825 19.5625 3.0625 19.5625 C3.42979496 26.05137757 3.42979496 26.05137757 1.85546875 28.2421875 C-1.5696304 30.7643738 -5.80438985 30.56910241 -9.9375 30.5625 C-13.93943404 29.56201649 -14.60982177 29.05401734 -16.9375 25.5625 C-17.37178132 21.93113607 -17.26170574 18.27953283 -17.25 14.625 C-17.26611328 13.62275391 -17.28222656 12.62050781 -17.29882812 11.58789062 C-17.29947266 10.62173828 -17.30011719 9.65558594 -17.30078125 8.66015625 C-17.30376221 7.77851807 -17.30674316 6.89687988 -17.30981445 5.98852539 C-16.85883304 3.04990094 -15.97826544 1.70023098 -13.9375 -0.4375 C-8.9867397 -2.08775343 -4.65674591 -2.2788331 0 0 Z " fill="#133057" transform="translate(93.9375,13.4375)"/>
<path d="M0 0 C0.39832031 0.81984375 0.79664062 1.6396875 1.20703125 2.484375 C1.73683594 3.56203125 2.26664063 4.6396875 2.8125 5.75 C3.33457031 6.81734375 3.85664063 7.8846875 4.39453125 8.984375 C5.7616692 11.55233242 7.17715463 13.74470783 9 16 C6.75438718 16.86762314 4.50473745 17.7192103 2.25 18.5625 C1.61578125 18.80935547 0.9815625 19.05621094 0.328125 19.31054688 C-3.11009179 20.58197079 -5.52168882 21.46686355 -9 20 C-8.67 18.68 -8.34 17.36 -8 16 C-8.99 16 -9.98 16 -11 16 C-13 16 -15 16 -17 16 C-14.08235 14.0549 -12.37462715 13.54723683 -9 13 C-8.82984375 12.39671875 -8.6596875 11.7934375 -8.484375 11.171875 C-5.09677419 0 -5.09677419 0 0 0 Z " fill="#228BC7" transform="translate(24,11)"/>
<path d="M0 0 C2.31 0 4.62 0 7 0 C7 9.9 7 19.8 7 30 C4.69 30 2.38 30 0 30 C0 20.1 0 10.2 0 0 Z " fill="#0F2D53" transform="translate(65,13)"/>
<path d="M0 0 C2.31 0 4.62 0 7 0 C7 9.9 7 19.8 7 30 C4.69 30 2.38 30 0 30 C0 20.1 0 10.2 0 0 Z " fill="#1A418F" transform="translate(101,13)"/>
<path d="M0 0 C1.98 0 3.96 0 6 0 C6.33 3.63 6.66 7.26 7 11 C8.32 11.33 9.64 11.66 11 12 C11.66 10.35 12.32 8.7 13 7 C15.31 7 17.62 7 20 7 C19.91445397 12.21830768 19.91445397 12.21830768 19 15 C14.30163813 18.23012378 10.57096733 18.25818854 5.015625 17.6171875 C2.55448674 16.86358315 1.55889934 16.0378383 0 14 C-1.22414456 10.81588627 -0.95926995 8.10050176 -0.5625 4.75 C-0.46066406 3.85796875 -0.35882813 2.9659375 -0.25390625 2.046875 C-0.17011719 1.37140625 -0.08632812 0.6959375 0 0 Z " fill="#0F2D55" transform="translate(113,26)"/>
<path d="M0 0 C2.97 0 5.94 0 9 0 C10.74706415 5.01331451 12.32220748 9.71321835 13 15 C10.03 14.505 10.03 14.505 7 14 C7 15.32 7 16.64 7 18 C5.35 18 3.7 18 2 18 C3.32 17.67 4.64 17.34 6 17 C5.67 15.35 5.34 13.7 5 12 C4.01 13.32 3.02 14.64 2 16 C2 15.34 2 14.68 2 14 C0.35 14 -1.3 14 -3 14 C-3.33 14.99 -3.66 15.98 -4 17 C-3.44606641 10.90673051 -2.07044316 5.76123315 0 0 Z " fill="#2069AE" transform="translate(142,13)"/>
<path d="M0 0 C2.0625 1.5625 2.0625 1.5625 3.0625 2.5625 C3.10330783 4.56208364 3.10504356 6.56295254 3.0625 8.5625 C0.7525 8.5625 -1.5575 8.5625 -3.9375 8.5625 C-4.2675 7.2425 -4.5975 5.9225 -4.9375 4.5625 C-6.2575 4.5625 -7.5775 4.5625 -8.9375 4.5625 C-9.2675 9.5125 -9.5975 14.4625 -9.9375 19.5625 C-10.2675 19.5625 -10.5975 19.5625 -10.9375 19.5625 C-10.9375 16.5925 -10.9375 13.6225 -10.9375 10.5625 C-12.5875 10.5625 -14.2375 10.5625 -15.9375 10.5625 C-15.9375 13.2025 -15.9375 15.8425 -15.9375 18.5625 C-16.2675 18.5625 -16.5975 18.5625 -16.9375 18.5625 C-17.01867951 16.14515458 -17.07806926 13.73055051 -17.125 11.3125 C-17.15013672 10.63058594 -17.17527344 9.94867188 -17.20117188 9.24609375 C-17.24687615 6.10773342 -17.13285744 3.91979089 -15.61328125 1.140625 C-11.38528029 -2.84098896 -4.8899575 -2.39295792 0 0 Z " fill="#2E6EB0" transform="translate(93.9375,13.4375)"/>
<path d="M0 0 C0.66 0.33 1.32 0.66 2 1 C1.175 2.010625 0.35 3.02125 -0.5 4.0625 C-3.19519525 7.80246195 -3.34918337 10.37332028 -3 15 C-3.5 17.4375 -3.5 17.4375 -4 19 C-9.8022175 19.36263859 -13.63999211 18.25684543 -19 16 C-15.16771102 11.99185072 -11.07477678 8.57171247 -6.6875 5.1875 C-6.04232422 4.68541016 -5.39714844 4.18332031 -4.73242188 3.66601562 C-3.15732875 2.44094319 -1.57899684 1.2200368 0 0 Z " fill="#18408E" transform="translate(58,15)"/>
<path d="M0 0 C0.57975586 0.36206543 1.15951172 0.72413086 1.75683594 1.09716797 C-2.36942616 5.77359835 -7.39672839 9.8061257 -13.24316406 12.09716797 C-15.48925781 11.44482422 -15.48925781 11.44482422 -17.24316406 10.09716797 C-17.57316406 9.10716797 -17.90316406 8.11716797 -18.24316406 7.09716797 C-15.66890122 5.70227671 -13.0861335 4.33145817 -10.49316406 2.97216797 C-9.76355469 2.57384766 -9.03394531 2.17552734 -8.28222656 1.76513672 C-7.57324219 1.39775391 -6.86425781 1.03037109 -6.13378906 0.65185547 C-5.48442383 0.30622559 -4.83505859 -0.0394043 -4.16601562 -0.39550781 C-2.24316406 -0.90283203 -2.24316406 -0.90283203 0 0 Z " fill="#228BC7" transform="translate(35.2431640625,27.90283203125)"/>
<path d="M0 0 C2.31 0 4.62 0 7 0 C7 4.29 7 8.58 7 13 C5.02 13 3.04 13 1 13 C0 12 0 12 -0.09765625 9.27734375 C-0.08605469 8.17519531 -0.07445313 7.07304687 -0.0625 5.9375 C-0.05347656 4.83277344 -0.04445313 3.72804688 -0.03515625 2.58984375 C-0.02355469 1.73519531 -0.01195313 0.88054688 0 0 Z " fill="#246DB2" transform="translate(101,13)"/>
<path d="M0 0 C2.31 0 4.62 0 7 0 C7 3.3 7 6.6 7 10 C5.02 10 3.04 10 1 10 C1 12.31 1 14.62 1 17 C0.67 17 0.34 17 0 17 C0 11.39 0 5.78 0 0 Z " fill="#216AAE" transform="translate(65,13)"/>
<path d="M0 0 C1.65 0 3.3 0 5 0 C5 1.65 5 3.3 5 5 C3.35 5 1.7 5 0 5 C0.33 6.98 0.66 8.96 1 11 C-1.64 10.67 -4.28 10.34 -7 10 C-6.67 7.69 -6.34 5.38 -6 3 C-4.02 3 -2.04 3 0 3 C0 2.01 0 1.02 0 0 Z " fill="#6FBDE2" transform="translate(51,6)"/>
<path d="M0 0 C1.98 0 3.96 0 6 0 C6 3.63 6 7.26 6 11 C3.03 10.505 3.03 10.505 0 10 C0 6.7 0 3.4 0 0 Z " fill="#02368E" transform="translate(113,26)"/>
<path d="M0 0 C2.31 0.33 4.62 0.66 7 1 C7 3.31 7 5.62 7 8 C4.69 8 2.38 8 0 8 C0 5.36 0 2.72 0 0 Z " fill="#0F2D55" transform="translate(101,35)"/>
<path d="M0 0 C1.98 0 3.96 0 6 0 C6 2.64 6 5.28 6 8 C4.33388095 8.042721 2.66617115 8.04063832 1 8 C0 7 0 7 -0.0625 3.4375 C-0.041875 2.303125 -0.02125 1.16875 0 0 Z " fill="#02378E" transform="translate(66,23)"/>
<path d="M0 0 C0 0.66 0 1.32 0 2 C0.66 2.33 1.32 2.66 2 3 C-0.97 4.65 -3.94 6.3 -7 8 C-7.99 7.01 -8.98 6.02 -10 5 C-10 4.34 -10 3.68 -10 3 C-8.70990357 2.49596232 -7.41786211 1.99690074 -6.125 1.5 C-5.04605469 1.08234375 -5.04605469 1.08234375 -3.9453125 0.65625 C-2 0 -2 0 0 0 Z " fill="#79C6EE" transform="translate(44,22)"/>
<path d="M0 0 C1.65 0 3.3 0 5 0 C5 2.97 5 5.94 5 9 C3.02 9 1.04 9 -1 9 C-0.67 6.03 -0.34 3.06 0 0 Z " fill="#03378D" transform="translate(78,24)"/>
<path d="M0 0 C2.64 0 5.28 0 8 0 C8.33 1.65 8.66 3.3 9 5 C6.36 5 3.72 5 1 5 C0.67 3.35 0.34 1.7 0 0 Z " fill="#112F57" transform="translate(150,38)"/>
<path d="M0 0 C2.64 0 5.28 0 8 0 C7.67 1.65 7.34 3.3 7 5 C4.69 5 2.38 5 0 5 C0 3.35 0 1.7 0 0 Z " fill="#0F2D53" transform="translate(135,38)"/>
<path d="M0 0 C2.31 0 4.62 0 7 0 C7 1.65 7 3.3 7 5 C4.69 4.67 2.38 4.34 0 4 C0 2.68 0 1.36 0 0 Z " fill="#2D4C90" transform="translate(126,33)"/>
<path d="M0 0 C0 0.66 0 1.32 0 2 C0.66 2.33 1.32 2.66 2 3 C0.02 3.99 0.02 3.99 -2 5 C-2 4.01 -2 3.02 -2 2 C-3.65 2.66 -5.3 3.32 -7 4 C-7.33 3.34 -7.66 2.68 -8 2 C-2.25 0 -2.25 0 0 0 Z " fill="#8AC6EB" transform="translate(44,22)"/>
<path d="M0 0 C0.66 0.33 1.32 0.66 2 1 C0.38405168 3.04119788 -1.2856382 5.04072937 -3 7 C-3.66 7 -4.32 7 -5 7 C-4.60196439 4.11424181 -4.20990931 3.17810487 -1.9375 1.25 C-1.298125 0.8375 -0.65875 0.425 0 0 Z " fill="#182351" transform="translate(58,15)"/>
<path d="M0 0 C0.99 0 1.98 0 3 0 C3 0.99 3 1.98 3 3 C2.01 3 1.02 3 0 3 C0 2.01 0 1.02 0 0 Z " fill="#69BCE2" transform="translate(47,4)"/>
</svg>
