<?xml version="1.0" encoding="UTF-8"?>
<svg version="1.1" xmlns="http://www.w3.org/2000/svg" width="512" height="512">
<path d="M0 0 C2.52060966 2.20169106 4.89606938 4.48504153 7.25 6.86328125 C8.29607422 7.85908203 8.29607422 7.85908203 9.36328125 8.875 C21.88119963 21.63598475 26.09153063 39.96779924 30.875 56.61328125 C31.50901316 58.78035903 32.14442387 60.94702843 32.78125 63.11328125 C34.02066597 67.33616279 35.2540457 71.56071989 36.48144531 75.78710938 C38.18756404 81.65589505 39.9073656 87.52039239 41.6484375 93.37890625 C41.89784088 94.2271698 42.14724426 95.07543335 42.40420532 95.94940186 C43.27031405 99.70341547 43.27031405 99.70341547 45.25 102.86328125 C45.47026855 102.25623352 45.69053711 101.64918579 45.91748047 101.02374268 C48.25049365 94.59611144 50.58812598 88.17017283 52.92822266 81.74511719 C53.79622486 79.36011519 54.66312222 76.97471074 55.52880859 74.58886719 C59.78405389 62.86352151 64.05559407 51.1499599 68.67578125 39.5625 C69.15017639 38.37004669 69.15017639 38.37004669 69.63415527 37.15350342 C76.92132078 19.10247879 88.51444233 6.04582263 106.25 -2.13671875 C123.35368314 -8.90692666 142.94446256 -9.87551098 160.25 -3.13671875 C169.25839869 0.79681281 176.35660871 5.89870175 183.25 12.86328125 C184.29607422 13.85908203 184.29607422 13.85908203 185.36328125 14.875 C189.75355808 19.35052493 192.73916483 24.19267719 195.5625 29.73828125 C195.88814941 30.37386963 196.21379883 31.00945801 196.54931641 31.66430664 C201.06088977 40.99127488 202.77724734 50.17516127 202.75 60.48828125 C202.77835938 61.44089844 202.80671875 62.39351563 202.8359375 63.375 C202.88225018 80.95066363 194.2543854 98.38434998 188.1875 114.55078125 C187.29820948 116.93401404 186.40955072 119.31748265 185.52148438 121.70117188 C183.68065407 126.64072291 181.83714243 131.57926046 179.99169922 136.51708984 C176.13410766 146.84509616 172.30978915 157.18539453 168.4848938 167.52554321 C166.40814382 173.13869586 164.32894062 178.75093967 162.25 184.36328125 C161.41665507 186.61327696 160.58332174 188.86327695 159.75 191.11328125 C154.74999999 204.61328127 154.74999999 204.61328127 153.50006104 207.9881134 C152.6665216 210.23867191 151.83298482 212.4892314 150.99945068 214.73979187 C148.91929241 220.35625475 146.83908843 225.9727007 144.75878906 231.58911133 C140.11271674 244.13278979 135.46744717 256.67676457 130.82450867 269.22160339 C128.71748031 274.91403649 126.6090202 280.60593111 124.49731445 286.29663086 C120.91298035 295.95773146 117.33271564 305.61994157 113.79959106 315.2999115 C112.35642411 319.25124651 110.90613861 323.19994884 109.45495605 327.14834595 C108.78985782 328.9639205 108.12817125 330.78074944 107.47033691 332.59896851 C99.4930633 354.6422717 90.02155569 373.02811401 68.375 384.17578125 C67.75173828 384.50143066 67.12847656 384.82708008 66.48632812 385.16259766 C56.5613086 390.02646426 46.41622825 391.30933011 35.48075867 391.2509613 C34.2519398 391.25634684 33.02312092 391.26173238 31.75706512 391.26728112 C28.38108934 391.27902888 25.00561318 391.2775294 21.62965834 391.2701143 C17.97512877 391.26535469 14.32065045 391.27791706 10.6661377 391.28813171 C3.51988526 391.30527122 -3.62627905 391.30616976 -10.77254669 391.30091881 C-16.58545121 391.29686647 -22.39832984 391.29833327 -28.21123314 391.30366707 C-29.04066015 391.30441549 -29.87008716 391.30516391 -30.72464832 391.30593501 C-32.41000095 391.3074666 -34.09535357 391.30900495 -35.78070619 391.31054998 C-51.56305084 391.32425772 -67.34534583 391.3188497 -83.12768932 391.30736477 C-97.54042963 391.29743631 -111.95304148 391.31036943 -126.36576197 391.33429896 C-141.19312035 391.35872991 -156.02041901 391.3682879 -170.8477971 391.36164623 C-179.1608559 391.35816261 -187.47381601 391.36032914 -195.78685951 391.37789726 C-202.86421174 391.39266942 -209.94139576 391.39318968 -217.01874486 391.37582635 C-220.62374121 391.36735458 -224.22843773 391.36507193 -227.83341789 391.38047791 C-251.05871829 391.47245747 -270.82195823 390.18715595 -288.48046875 373.15625 C-289.22941406 372.39957031 -289.97835938 371.64289063 -290.75 370.86328125 C-291.79607422 369.86748047 -291.79607422 369.86748047 -292.86328125 368.8515625 C-297.25355808 364.37603757 -300.23916483 359.53388531 -303.0625 353.98828125 C-303.38814941 353.35269287 -303.71379883 352.71710449 -304.04931641 352.06225586 C-308.62961314 342.59321288 -310.27184009 333.39589923 -310.125 322.92578125 C-310.11412354 321.86891113 -310.10324707 320.81204102 -310.09204102 319.72314453 C-309.69859865 300.50237147 -302.07155013 284.76486662 -288.22265625 271.4296875 C-270.61497483 256.09730118 -251.07652028 253.78359614 -228.68359375 253.546875 C-227.03735373 253.52626942 -225.39111858 253.50527209 -223.74488831 253.48390198 C-219.43944264 253.42905309 -215.13395222 253.37948193 -210.82843018 253.33105469 C-206.42399169 253.28056585 -202.01961714 253.22502361 -197.61523438 253.16992188 C-188.99354386 253.06279603 -180.37179938 252.96125244 -171.75 252.86328125 C-185.44008369 242.13958493 -185.44008369 242.13958493 -199.375 231.73828125 C-200.96000881 230.57733253 -202.54463745 229.41586462 -204.12890625 228.25390625 C-204.8986377 227.68994141 -205.66836914 227.12597656 -206.46142578 226.54492188 C-212.59693254 222.03656145 -218.68578393 217.466951 -224.75 212.86328125 C-225.7296875 212.12335938 -226.709375 211.3834375 -227.71875 210.62109375 C-242.85097681 198.90729167 -252.17451744 182.92666616 -254.75 163.86328125 C-255.93287118 142.93556037 -250.92977098 125.09179383 -237.27734375 108.9375 C-223.93770525 94.7334372 -205.93134128 87.21982444 -186.5 86.55078125 C-166.03232284 87.10872367 -150.65355649 95.71345437 -134.75 107.86328125 C-133.97527344 108.45173828 -133.20054687 109.04019531 -132.40234375 109.64648438 C-128.88780698 112.31633727 -125.37641657 114.99019676 -121.87182617 117.6730957 C-115.74916048 122.35838616 -109.58487381 126.98172527 -103.375 131.55078125 C-102.60905518 132.11442383 -101.84311035 132.67806641 -101.05395508 133.25878906 C-96.64365676 136.49525674 -92.20382047 139.68700931 -87.75 142.86328125 C-88.01086899 141.9848909 -88.27173798 141.10650055 -88.54051208 140.20149231 C-91.00000741 131.91851287 -93.4573769 123.63490638 -95.91236782 115.35059071 C-97.17453873 111.09169572 -98.4375268 106.83304665 -99.70239258 102.57495117 C-100.92329763 98.46473621 -102.14204275 94.35388646 -103.35930061 90.24258995 C-103.82380563 88.67510931 -104.28908503 87.10785793 -104.75515556 85.54084206 C-105.40840949 83.34399429 -106.05889153 81.14634341 -106.70874023 78.94848633 C-107.26500343 77.07317986 -107.26500343 77.07317986 -107.83250427 75.1599884 C-112.95465541 56.75528983 -110.40985941 37.87847375 -102 20.98828125 C-98.64396455 15.26327961 -94.41512369 10.55188711 -89.75 5.86328125 C-88.75226563 4.81333984 -88.75226563 4.81333984 -87.734375 3.7421875 C-64.7458606 -18.76374359 -24.9451559 -19.38210266 0 0 Z " fill="#6AA0F1" transform="translate(309.75,67.13671875)"/>
<path d="M0 0 C1.16208984 0.88268555 1.16208984 0.88268555 2.34765625 1.78320312 C5.86383135 4.4543006 9.37699076 7.12921409 12.88256836 9.81420898 C19.7009367 15.03389776 26.58468728 20.15695717 33.52026367 25.21972656 C34.96201944 26.27431584 36.39828422 27.33645817 37.82861328 28.40649414 C39.33213015 29.50987334 40.86442909 30.57468559 42.41748047 31.60717773 C48.617706 35.92692438 50.76003399 39.69849575 52.625 46.9375 C52.89948975 47.89333984 53.17397949 48.84917969 53.45678711 49.83398438 C54.03527504 51.85680272 54.60040255 53.88348456 55.15283203 55.91357422 C55.98813634 58.95677798 56.87286942 61.98060335 57.77734375 65.00390625 C61.00189898 75.8055064 64.00972269 86.65899165 66.93945312 97.54370117 C68.45005018 103.11224644 70.11726131 108.5861504 72.0078125 114.0390625 C73.97602411 119.91270187 75.64251012 125.8809679 77.36767578 131.82958984 C77.96635639 133.88452059 78.57299821 135.93686326 79.18359375 137.98828125 C81.08366413 144.38085109 82.94616368 150.78099654 84.73046875 157.20703125 C85.18510498 158.84381836 85.18510498 158.84381836 85.64892578 160.51367188 C86.24008115 162.64827673 86.82848201 164.78364716 87.41357422 166.91992188 C88.82751051 172.03013902 90.33252436 177.07952398 92.03515625 182.1015625 C93.87789317 187.53770282 95.41953949 193.01211898 96.875 198.5625 C99.42204674 208.07706761 102.24252476 217.47053306 105.30175781 226.83203125 C105.97193954 228.91287522 106.61123244 231.00072679 107.2421875 233.09375 C112.80057291 251.21349682 122.6595415 264.74398601 139.19042969 274.04980469 C146.37831021 277.8241208 154.086256 280.29311404 162 282 C162 282.33 162 282.66 162 283 C126.5850059 283.09167246 91.1700327 283.16209799 55.75494426 283.20426132 C51.56831877 283.20926379 47.38169351 283.21444112 43.19506836 283.21972656 C42.36163088 283.2207758 41.5281934 283.22182505 40.66950024 283.22290608 C27.19688961 283.24028359 13.72434767 283.27180655 0.2517777 283.30861118 C-13.58529229 283.34609466 -27.42232646 283.36825147 -41.25944513 283.37635398 C-49.78904023 283.38182644 -58.31844115 283.3990738 -66.84797644 283.43166587 C-72.70701254 283.45290534 -78.56594913 283.45917885 -84.42502088 283.45400551 C-87.799156 283.45145822 -91.17268251 283.4574278 -94.54680252 283.4768219 C-117.24190649 283.60082015 -136.50438889 281.90681314 -153.73046875 265.29296875 C-154.47941406 264.53628906 -155.22835937 263.77960938 -156 263 C-157.04607422 262.00419922 -157.04607422 262.00419922 -158.11328125 260.98828125 C-162.50355808 256.51275632 -165.48916483 251.67060406 -168.3125 246.125 C-168.63814941 245.48941162 -168.96379883 244.85382324 -169.29931641 244.19897461 C-173.87961314 234.72993163 -175.52184009 225.53261798 -175.375 215.0625 C-175.36412354 214.00562988 -175.35324707 212.94875977 -175.34204102 211.85986328 C-174.94859865 192.63909022 -167.32155013 176.90158537 -153.47265625 163.56640625 C-135.86497483 148.23401993 -116.32652028 145.92031489 -93.93359375 145.68359375 C-92.28735373 145.66298817 -90.64111858 145.64199084 -88.99488831 145.62062073 C-84.68944264 145.56577184 -80.38395222 145.51620068 -76.07843018 145.46777344 C-71.67399169 145.4172846 -67.26961714 145.36174236 -62.86523438 145.30664062 C-54.24354386 145.19951478 -45.62179938 145.09797119 -37 145 C-50.69008369 134.27630368 -50.69008369 134.27630368 -64.625 123.875 C-66.21000881 122.71405128 -67.79463745 121.55258337 -69.37890625 120.390625 C-70.1486377 119.82666016 -70.91836914 119.26269531 -71.71142578 118.68164062 C-77.84693254 114.1732802 -83.93578393 109.60366975 -90 105 C-90.9796875 104.26007813 -91.959375 103.52015625 -92.96875 102.7578125 C-108.10097681 91.04401042 -117.42451744 75.06338491 -120 56 C-121.18287118 35.07227912 -116.17977098 17.22851258 -102.52734375 1.07421875 C-72.60334061 -30.78889505 -31.56547154 -24.11504714 0 0 Z " fill="#FC3E54" transform="translate(175,175)"/>
<path d="M0 0 C0.77472656 0.58845703 1.54945313 1.17691406 2.34765625 1.78320312 C5.86383135 4.4543006 9.37699076 7.12921409 12.88256836 9.81420898 C19.7009367 15.03389776 26.58468728 20.15695717 33.52026367 25.21972656 C34.96201944 26.27431584 36.39828422 27.33645817 37.82861328 28.40649414 C39.33213015 29.50987334 40.86442909 30.57468559 42.41748047 31.60717773 C48.617706 35.92692438 50.76003399 39.69849575 52.625 46.9375 C52.89948975 47.89333984 53.17397949 48.84917969 53.45678711 49.83398438 C54.03527504 51.85680272 54.60040255 53.88348456 55.15283203 55.91357422 C55.98813634 58.95677798 56.87286942 61.98060335 57.77734375 65.00390625 C61.00189898 75.8055064 64.00972269 86.65899165 66.93945312 97.54370117 C68.45005018 103.11224644 70.11726131 108.5861504 72.0078125 114.0390625 C73.97602411 119.91270187 75.64251012 125.8809679 77.36767578 131.82958984 C77.96635639 133.88452059 78.57299821 135.93686326 79.18359375 137.98828125 C81.08366413 144.38085109 82.94616368 150.78099654 84.73046875 157.20703125 C85.03355957 158.29822266 85.33665039 159.38941406 85.64892578 160.51367188 C86.24008115 162.64827673 86.82848201 164.78364716 87.41357422 166.91992188 C88.82751051 172.03013902 90.33252436 177.07952398 92.03515625 182.1015625 C93.87789317 187.53770282 95.41953949 193.01211898 96.875 198.5625 C99.42204674 208.07706761 102.24252476 217.47053306 105.30175781 226.83203125 C105.97193954 228.91287522 106.61123244 231.00072679 107.2421875 233.09375 C110.56967287 243.92874716 115.29675731 253.59646252 123 262 C117.78581129 260.40507169 114.05561637 257.10718223 109.875 253.75 C103.51477472 248.72270932 97.10174143 243.79241126 90.5625 239 C89.77746094 238.42419189 88.99242187 237.84838379 88.18359375 237.25512695 C85.79019048 235.50187106 83.39512531 233.75090239 81 232 C71.0616912 224.72183378 61.16744493 217.40023378 51.40478516 209.88769531 C46.23547025 205.91940493 41.00676829 202.0389936 35.75 198.1875 C28.94213698 193.19878726 22.20213202 188.12983675 15.5 183 C6.53862605 176.14442549 -2.51085725 169.4196548 -11.61328125 162.75292969 C-14.1119772 160.91775815 -16.6036086 159.07332262 -19.09375 157.2265625 C-19.93599121 156.60281738 -20.77823242 155.97907227 -21.64599609 155.33642578 C-23.23859994 154.1566379 -24.83016171 152.97544129 -26.42041016 151.79248047 C-30.03580307 149.11863769 -33.67678455 146.52848895 -37.4375 144.0625 C-42.4288375 140.76875686 -47.14429352 137.15438688 -51.875 133.5 C-58.88797275 128.11812528 -65.935952 122.79314583 -73.0625 117.5625 C-73.84923096 116.98411377 -74.63596191 116.40572754 -75.4465332 115.80981445 C-78.23669153 113.75955821 -81.02718794 111.7098195 -83.82421875 109.66894531 C-102.01749167 96.3844634 -115.82231405 81.89369931 -119.71875 58.77734375 C-121.76511428 38.56949652 -117.4600095 20.24213717 -105 4 C-75.70523958 -30.66315253 -32.73423951 -25.00794984 0 0 Z " fill="#F6C031" transform="translate(175,175)"/>
<path d="M0 0 C2.52060966 2.20169106 4.89606938 4.48504153 7.25 6.86328125 C7.94738281 7.52714844 8.64476562 8.19101563 9.36328125 8.875 C21.88119963 21.63598475 26.09153063 39.96779924 30.875 56.61328125 C31.50901316 58.78035903 32.14442387 60.94702843 32.78125 63.11328125 C34.02350674 67.34282964 35.25401161 71.57554681 36.47753906 75.81054688 C37.62700922 79.77051821 38.81516131 83.71493124 40.04589844 87.65039062 C40.32702484 88.55638 40.60815125 89.46236938 40.89779663 90.39581299 C41.42096151 92.07382825 41.95178849 93.74948388 42.49209595 95.42205811 C45.05496217 103.6790357 44.33086918 109.69209656 41.3125 117.66015625 C40.84568817 118.93320114 40.84568817 118.93320114 40.3694458 120.23196411 C39.34039636 123.02984441 38.29532075 125.82144366 37.25 128.61328125 C36.5169436 130.59616227 35.78486373 132.57940455 35.05371094 134.56298828 C33.16338708 139.68260254 31.25955207 144.79707228 29.35131836 149.91003418 C27.67106873 154.41571798 26.00005049 158.92481625 24.328125 163.43359375 C21.72741109 170.44155677 19.11769814 177.4461243 16.50390625 184.44921875 C13.4793696 192.5543439 10.46794915 200.66425396 7.46484375 208.77734375 C7.05462479 209.88553467 6.64440582 210.99372559 6.22175598 212.13549805 C4.12033969 217.81351735 2.0202486 223.49202469 -0.07885742 229.17089844 C-4.40305557 240.86352772 -8.75127511 252.54650397 -13.140625 264.21484375 C-14.44521343 267.68991877 -15.74941252 271.16513972 -17.05355835 274.64038086 C-17.88254513 276.84490332 -18.71388594 279.04854224 -19.54776001 281.2512207 C-27.29895076 301.1364152 -27.29895076 301.1364152 -30.4375 322.11328125 C-30.47166016 322.86996094 -30.50582031 323.62664062 -30.54101562 324.40625 C-30.62158474 326.22480993 -30.68748953 328.04401105 -30.75 329.86328125 C-32.62264991 327.05430638 -33.36677608 325.18103051 -34.265625 321.98828125 C-34.5440625 321.01318604 -34.8225 320.03809082 -35.109375 319.03344727 C-35.40328125 317.98729248 -35.6971875 316.9411377 -36 315.86328125 C-38.147148 308.34770409 -40.34425784 300.86267306 -42.75 293.42578125 C-45.40200129 285.17422568 -47.75354833 276.85113357 -50.06762695 268.49926758 C-54.06482635 254.07871225 -58.22055948 239.7025476 -62.66796875 225.4140625 C-65.45768638 216.25935736 -68.08081082 207.05368821 -70.75 197.86328125 C-72.76599463 190.92807912 -74.78642266 183.99419273 -76.81445312 177.0625 C-77.46776797 174.82840875 -78.1200276 172.59400877 -78.77148438 170.359375 C-79.82312491 166.75541651 -80.87980731 163.15296766 -81.9375 159.55078125 C-82.258396 158.44822998 -82.57929199 157.34567871 -82.90991211 156.2097168 C-83.37796265 154.62090698 -83.37796265 154.62090698 -83.85546875 153 C-84.12512451 152.07920654 -84.39478027 151.15841309 -84.67260742 150.2097168 C-85.57514605 147.40638643 -86.55811517 144.669132 -87.58642578 141.91088867 C-90.11204756 135.01880094 -92.18525888 128.00238428 -94.26171875 120.96484375 C-94.67935986 119.55757913 -95.09723647 118.15038438 -95.51533508 116.74325562 C-96.3838498 113.81758044 -97.25006874 110.89123911 -98.11450195 107.96435547 C-99.2202023 104.22097759 -100.33092128 100.47911155 -101.44324017 96.73769569 C-102.3036882 93.84197038 -103.16190919 90.94558887 -104.01941872 88.04899216 C-104.42828386 86.66856839 -104.83773933 85.28831931 -105.24780846 83.90825272 C-105.81934118 81.98326913 -106.38764422 80.05732754 -106.95581055 78.13134766 C-107.27905807 77.03867584 -107.6023056 75.94600403 -107.93534851 74.82022095 C-112.97260451 56.53649787 -110.34130736 37.7407952 -102 20.98828125 C-98.64396455 15.26327961 -94.41512369 10.55188711 -89.75 5.86328125 C-89.08484375 5.16332031 -88.4196875 4.46335937 -87.734375 3.7421875 C-64.7458606 -18.76374359 -24.9451559 -19.38210266 0 0 Z " fill="#249562" transform="translate(309.75,67.13671875)"/>
<path d="M0 0 C10.91653057 5.64874626 18.23132642 12.68571836 24.1875 23.5 C24.1875 24.16 24.1875 24.82 24.1875 25.5 C24.8475 25.5 25.5075 25.5 26.1875 25.5 C26.1875 24.84 26.1875 24.18 26.1875 23.5 C26.8475 23.83 27.5075 24.16 28.1875 24.5 C28.6825 25.985 28.6825 25.985 29.1875 27.5 C29.765 27.62375 30.3425 27.7475 30.9375 27.875 C34.24686327 28.79426758 35.95537036 31.0223361 38.1875 33.5 C38.93 34.31984375 39.6725 35.1396875 40.4375 35.984375 C42.02938187 37.74973118 43.61683034 39.51909805 45.19921875 41.29296875 C46.49258896 42.7286351 47.8211281 44.1336281 49.1875 45.5 C50.41038018 51.38269727 48.91867817 57.19521418 47.2265625 62.828125 C47.0091188 63.55743729 46.79167511 64.28674957 46.56764221 65.03816223 C43.23398291 75.91980635 39.12186652 86.53704865 35.125 97.1875 C34.23570948 99.57073279 33.34705072 101.9542014 32.45898438 104.33789062 C30.61815407 109.27744166 28.77464243 114.21597921 26.92919922 119.15380859 C23.07160766 129.48181491 19.24728915 139.82211328 15.4223938 150.16226196 C13.34564382 155.77541461 11.26644062 161.38765842 9.1875 167 C8.35415507 169.24999571 7.52082174 171.4999957 6.6875 173.75 C1.6875 187.25000001 1.6875 187.25000001 0.43771362 190.62442017 C-0.39633444 192.87635196 -1.23037984 195.12828475 -2.06442261 197.38021851 C-4.13679895 202.97567002 -6.20922014 208.57110491 -8.28173828 214.16650391 C-12.16232359 224.64348088 -16.04246007 235.12062345 -19.92108154 245.59832764 C-21.73904806 250.50929925 -23.55725922 255.42018027 -25.37548828 260.33105469 C-26.23628721 262.6562049 -27.09696829 264.98139874 -27.95751953 267.30664062 C-32.54954444 279.71437553 -37.15121237 292.11809614 -41.8125 304.5 C-44.8125 304.5 -44.8125 304.5 -46.29541016 303.26586914 C-46.80894043 302.69473389 -47.3224707 302.12359863 -47.8515625 301.53515625 C-48.42841797 300.90432129 -49.00527344 300.27348633 -49.59960938 299.62353516 C-50.20611328 298.94339355 -50.81261719 298.26325195 -51.4375 297.5625 C-56.40114073 291.97041668 -56.40114073 291.97041668 -61.8046875 286.81640625 C-62.63226563 286.09324219 -63.45984375 285.37007813 -64.3125 284.625 C-65.0446875 284.02945312 -65.776875 283.43390625 -66.53125 282.8203125 C-68.6276179 279.02384137 -66.94257243 275.52689063 -65.8125 271.5 C-64.65973291 267.9565798 -63.36689187 264.47390906 -62.05078125 260.98828125 C-61.67248672 259.97167923 -61.2941922 258.95507721 -60.9044342 257.90766907 C-59.65008437 254.54054681 -58.38750815 251.17657085 -57.125 247.8125 C-56.23132804 245.41803191 -55.33827488 243.02333279 -54.44580078 240.62841797 C-53.03586693 236.84606928 -51.62550006 233.06389058 -50.21209717 229.28283691 C-46.7937949 220.13830833 -43.39327148 210.9873224 -40.00390625 201.83203125 C-39.51904938 200.5225552 -39.03418609 199.21308153 -38.54931641 197.90361023 C-37.82198182 195.93929645 -37.09464762 193.97498252 -36.3673439 192.01065731 C-25.62824413 163.008692 -14.79679216 134.04168334 -3.90802002 105.09558105 C-3.06449201 102.85296707 -2.22163394 100.61010233 -1.37890625 98.3671875 C-1.00776955 97.38143234 -1.00776955 97.38143234 -0.62913513 96.37576294 C0.35250431 93.76180134 1.30439641 91.14931078 2.1875 88.5 C1.45789063 88.78875 0.72828125 89.0775 -0.0234375 89.375 C-12.88503373 93.94801199 -26.25386755 94.72986702 -38.91796875 89.04296875 C-52.28596274 81.91698005 -60.47935256 72.74633158 -65.8125 58.5 C-69.10049362 46.47764295 -67.79076765 32.32142119 -61.8125 21.5 C-48.83843944 0.79945176 -23.24840713 -9.48967061 0 0 Z " fill="#77A7F1" transform="translate(462.8125,84.5)"/>
<path d="M0 0 C2.52060966 2.20169106 4.89606938 4.48504153 7.25 6.86328125 C8.29607422 7.85908203 8.29607422 7.85908203 9.36328125 8.875 C20.03779415 19.75678499 26.36188801 35.44350491 26.4375 50.55078125 C26.39002874 52.65534061 26.33291015 54.75981993 26.25 56.86328125 C22.09345831 53.46565869 18.53676987 50.13608208 15.25 45.86328125 C12.44563993 42.84859417 10.09242345 40.42871303 6.25 38.86328125 C6.25 38.20328125 6.25 37.54328125 6.25 36.86328125 C5.59 36.53328125 4.93 36.20328125 4.25 35.86328125 C3.92 36.19328125 3.59 36.52328125 3.25 36.86328125 C2.59 36.86328125 1.93 36.86328125 1.25 36.86328125 C0.07881699 35.17878377 -1.01242662 33.43832126 -2.0625 31.67578125 C-4.63914257 27.52982551 -7.00971134 24.05621059 -10.75 20.86328125 C-11.29914063 20.38503906 -11.84828125 19.90679687 -12.4140625 19.4140625 C-24.21782426 9.77189497 -36.37739983 8.5777512 -51.15722656 9.57666016 C-63.01379872 10.88735843 -72.73681032 18.78937131 -80.18359375 27.6875 C-86.31835067 36.20884565 -89.0975243 44.90631599 -89 55.30078125 C-89.00773437 56.12126953 -89.01546875 56.94175781 -89.0234375 57.78710938 C-89.00728059 62.84826154 -88.24172021 66.99151248 -86.75 71.86328125 C-86.43581021 75.81373196 -87.17295446 78.37633381 -88.796875 81.96484375 C-91.06959473 87.20038675 -93.15417179 92.47351483 -95.140625 97.82421875 C-95.59647728 99.05030602 -95.59647728 99.05030602 -96.0615387 100.30116272 C-97.04298303 102.94614788 -98.02152848 105.59219505 -99 108.23828125 C-99.70871838 110.14940116 -100.41762578 112.06045097 -101.12670898 113.97143555 C-103.33811199 119.93403946 -105.54460581 125.89845265 -107.75 131.86328125 C-108.08984924 132.7822821 -108.42969849 133.70128296 -108.77984619 134.64813232 C-111.81729201 142.86218215 -114.85310712 151.07683351 -117.88623047 159.29248047 C-122.09792086 170.69864005 -126.31978277 182.10099052 -130.55078125 193.5 C-130.80148188 194.17548197 -131.0521825 194.85096394 -131.31048012 195.54691505 C-133.79563503 202.24279488 -136.28102657 208.93858644 -138.76877308 215.63350391 C-139.23498078 216.88873467 -139.70082687 218.1440998 -140.1663084 219.39960003 C-141.31281651 222.49146055 -142.46516163 225.58091339 -143.62638855 228.6672821 C-145.7828922 234.42278152 -147.87971372 240.17549295 -149.7888546 246.01708984 C-150.68599815 248.75337855 -151.61187384 251.47959251 -152.53927994 254.20574951 C-153.17180163 256.10517932 -153.76193031 258.01856545 -154.35031128 259.93212891 C-157.15748086 268.13697335 -160.80326952 272.31669627 -167.9357605 276.94848633 C-176.33392811 282.66255888 -181.63144668 293.07747555 -183.75 302.86328125 C-185.23180305 318.1943102 -183.588721 330.18717834 -174.3125 342.86328125 C-171.14330847 346.66206663 -167.53535662 349.69594204 -163.75 352.86328125 C-163.75 353.52328125 -163.75 354.18328125 -163.75 354.86328125 C-162.76 355.19328125 -161.77 355.52328125 -160.75 355.86328125 C-159.13671875 357.53515625 -159.13671875 357.53515625 -157.4375 359.61328125 C-155.28789947 362.15494729 -153.32431729 364.21801684 -150.75 366.36328125 C-147.62446301 368.9678954 -145.18510503 371.77235389 -142.5625 374.86328125 C-139.86754584 377.83702377 -136.82484964 380.29044788 -133.75 382.86328125 C-133.75 383.19328125 -133.75 383.52328125 -133.75 383.86328125 C-153.25113453 384.74612939 -168.47362992 381.38873316 -184 368.55078125 C-196.82065352 356.55298541 -206.01585428 339.77014499 -207.12890625 322.0625 C-207.1836293 320.35065916 -207.22406263 318.63830014 -207.25 316.92578125 C-207.26861084 316.15218262 -207.28722168 315.37858398 -207.30639648 314.58154297 C-207.16782299 301.51796434 -201.87033618 288.93534174 -197.24145508 276.90423584 C-195.56240736 272.53749826 -193.9104332 268.16047504 -192.25390625 263.78515625 C-191.71523422 262.36521866 -191.71523422 262.36521866 -191.16567993 260.91659546 C-186.60944191 248.88836166 -182.18553075 236.81141087 -177.75 224.73828125 C-172.07854595 209.31335782 -166.39721881 193.8922771 -160.6796875 178.484375 C-160.29940777 177.45956654 -160.29940777 177.45956654 -159.91144562 176.41405487 C-157.67857789 170.3973647 -155.44469656 164.38105131 -153.20898438 158.36541748 C-150.05047868 149.86674199 -146.89598362 141.36660091 -143.75 132.86328125 C-143.51843704 132.23739861 -143.28687408 131.61151596 -143.04829407 130.96666718 C-137.79561565 116.76427317 -132.60051754 102.54759598 -127.66506958 88.23110962 C-124.21966531 78.26695175 -120.58478934 68.37542068 -116.89550781 58.49926758 C-116.12773316 56.43926862 -115.36410194 54.37772093 -114.60449219 52.31469727 C-110.91315879 42.28962209 -107.21595416 32.31442157 -102.46484375 22.734375 C-102.15518677 22.10777481 -101.84552979 21.48117462 -101.52648926 20.83558655 C-98.49718938 14.96192207 -94.48925474 10.40575033 -89.75 5.86328125 C-89.08742188 5.16976562 -88.42484375 4.47625 -87.7421875 3.76171875 C-64.81904795 -18.8127799 -24.90517334 -19.35103667 0 0 Z " fill="#5694F0" transform="translate(485.75,73.13671875)"/>
<path d="M0 0 C2.52060966 2.20169106 4.89606938 4.48504153 7.25 6.86328125 C7.94738281 7.52714844 8.64476562 8.19101563 9.36328125 8.875 C19.33196215 19.03724752 23.66932995 32.37763028 27.8125 45.67578125 C28.35100586 47.40332642 28.35100586 47.40332642 28.90039062 49.16577148 C31.37952494 57.47470643 31.37952494 57.47470643 30.25 60.86328125 C29.404375 60.00605469 28.55875 59.14882812 27.6875 58.265625 C22.23512122 52.76174795 16.81299719 47.30185992 10.89453125 42.29296875 C9.32084109 40.92486757 7.87897597 39.49353935 6.4375 37.98828125 C4.35416336 35.65677721 4.35416336 35.65677721 1.25 34.86328125 C-0.2578125 32.859375 -0.2578125 32.859375 -1.875 30.30078125 C-8.51533169 20.58288456 -17.52955482 13.45454429 -29.015625 10.2265625 C-43.71447741 8.27371497 -57.33241858 9.1982846 -69.625 18.17578125 C-78.21278197 25.4918807 -85.38679742 34.55610444 -87.75 45.86328125 C-89.01947344 62.65495269 -87.1928265 75.80226973 -75.94921875 88.97265625 C-73.34590848 91.67409573 -71.0708429 93.68596092 -67.76025391 95.515625 C-63.95428491 98.48384867 -63.64400984 100.28072642 -62.71484375 104.9609375 C-62.4035061 106.40466154 -62.08807285 107.84750704 -61.76904297 109.28955078 C-61.60732605 110.04069153 -61.44560913 110.79183228 -61.2789917 111.56573486 C-60.39608052 115.40044419 -59.26456181 119.15567803 -58.12890625 122.921875 C-57.89964447 123.68932037 -57.67038269 124.45676575 -57.43417358 125.24746704 C-56.73010623 127.59953273 -56.02149885 129.95019799 -55.3125 132.30078125 C-54.84275556 133.86643347 -54.3733538 135.43218855 -53.90429688 136.99804688 C-53.20569422 139.33006623 -52.50686735 141.66201478 -51.8066864 143.99356079 C-50.02451254 149.93105192 -48.26907891 155.87611601 -46.52368164 161.82450867 C-45.26446689 166.11581808 -43.99783866 170.40480472 -42.72265625 174.69140625 C-42.40490234 175.76003906 -42.08714844 176.82867187 -41.75976562 177.9296875 C-41.13284391 180.03666151 -40.50524974 182.14343557 -39.87695312 184.25 C-38.12256724 190.15466038 -36.40509612 196.06729923 -34.72718811 201.99406433 C-32.20213851 210.90460849 -29.58426179 219.78191435 -26.8828125 228.640625 C-26.55480148 229.71903656 -26.22679047 230.79744812 -25.88883972 231.90853882 C-24.54023748 236.34110058 -23.19093946 240.77338803 -21.82910156 245.2019043 C-20.81860121 248.49172339 -19.81858279 251.78457748 -18.8203125 255.078125 C-18.35638596 256.57338966 -18.35638596 256.57338966 -17.88308716 258.09886169 C-15.57093709 265.77573533 -15.01438929 270.76100833 -18.05078125 278.37109375 C-18.40634346 279.28119705 -18.40634346 279.28119705 -18.76908875 280.20968628 C-19.52404396 282.13979843 -20.29191573 284.06436096 -21.0625 285.98828125 C-25.7836473 297.82520715 -30.0290044 309.25150556 -30.4375 322.11328125 C-30.47166016 322.86996094 -30.50582031 323.62664062 -30.54101562 324.40625 C-30.62158474 326.22480993 -30.68748953 328.04401105 -30.75 329.86328125 C-32.62264991 327.05430638 -33.36677608 325.18103051 -34.265625 321.98828125 C-34.5440625 321.01318604 -34.8225 320.03809082 -35.109375 319.03344727 C-35.40328125 317.98729248 -35.6971875 316.9411377 -36 315.86328125 C-38.147148 308.34770409 -40.34425784 300.86267306 -42.75 293.42578125 C-45.40200129 285.17422568 -47.75354833 276.85113357 -50.06762695 268.49926758 C-54.06482635 254.07871225 -58.22055948 239.7025476 -62.66796875 225.4140625 C-65.45768638 216.25935736 -68.08081082 207.05368821 -70.75 197.86328125 C-72.76599463 190.92807912 -74.78642266 183.99419273 -76.81445312 177.0625 C-77.46776797 174.82840875 -78.1200276 172.59400877 -78.77148438 170.359375 C-79.82312491 166.75541651 -80.87980731 163.15296766 -81.9375 159.55078125 C-82.258396 158.44822998 -82.57929199 157.34567871 -82.90991211 156.2097168 C-83.37796265 154.62090698 -83.37796265 154.62090698 -83.85546875 153 C-84.12512451 152.07920654 -84.39478027 151.15841309 -84.67260742 150.2097168 C-85.57514605 147.40638643 -86.55811517 144.669132 -87.58642578 141.91088867 C-90.11204756 135.01880094 -92.18525888 128.00238428 -94.26171875 120.96484375 C-94.67935986 119.55757913 -95.09723647 118.15038438 -95.51533508 116.74325562 C-96.3838498 113.81758044 -97.25006874 110.89123911 -98.11450195 107.96435547 C-99.2202023 104.22097759 -100.33092128 100.47911155 -101.44324017 96.73769569 C-102.3036882 93.84197038 -103.16190919 90.94558887 -104.01941872 88.04899216 C-104.42828386 86.66856839 -104.83773933 85.28831931 -105.24780846 83.90825272 C-105.81934118 81.98326913 -106.38764422 80.05732754 -106.95581055 78.13134766 C-107.27905807 77.03867584 -107.6023056 75.94600403 -107.93534851 74.82022095 C-112.97260451 56.53649787 -110.34130736 37.7407952 -102 20.98828125 C-98.64396455 15.26327961 -94.41512369 10.55188711 -89.75 5.86328125 C-89.08484375 5.16332031 -88.4196875 4.46335937 -87.734375 3.7421875 C-64.7458606 -18.76374359 -24.9451559 -19.38210266 0 0 Z " fill="#288F5F" transform="translate(309.75,67.13671875)"/>
<path d="M0 0 C3.82658796 0.56186055 5.51974957 2.17746102 8.17578125 4.91455078 C8.99183838 5.74697296 9.80789551 6.57939514 10.64868164 7.43704224 C11.5277417 8.34727142 12.40680176 9.25750061 13.3125 10.1953125 C14.72522679 11.63267235 16.13797131 13.07001514 17.55162048 14.50646782 C21.01787166 18.03338155 24.46801966 21.57596773 27.91210938 25.12451172 C47.11114677 46.50454998 47.11114677 46.50454998 71 61 C71.95703125 62.94921875 71.95703125 62.94921875 72.8125 65.6875 C73.1528125 66.77675781 73.493125 67.86601562 73.84375 68.98828125 C75.52056837 74.70617327 77.03541684 80.47014175 78.57519531 86.22607422 C80.65394598 93.92107593 83.00842526 101.50480592 85.4597168 109.08813477 C87.91033149 116.67382391 90.19304381 124.2980309 92.40722656 131.95556641 C93.22077882 134.76145051 94.04575768 137.5639179 94.87158203 140.36621094 C95.28774563 141.7792917 95.7028001 143.19269962 96.11669922 144.60644531 C97.18876316 148.26586991 98.27705319 151.91938103 99.390625 155.56640625 C99.61814453 156.31921875 99.84566406 157.07203125 100.08007812 157.84765625 C100.51102854 159.2724311 100.94683729 160.69575026 101.38867188 162.1171875 C102.77907935 166.7397225 103.50729994 171.19617437 104 176 C97.47646849 171.78062461 91.27163225 167.2479278 85.125 162.5 C78.25346251 157.22870023 71.35494256 152.0020347 64.375 146.875 C63.21436035 146.02240601 63.21436035 146.02240601 62.03027344 145.15258789 C59.68777293 143.43379401 57.34405657 141.716671 55 140 C44.99575642 132.66993635 35.02844189 125.30377397 25.19384766 117.74707031 C19.92482492 113.69926296 14.61897062 109.70381172 9.2956543 105.7277832 C5.5011246 102.88892652 1.72343187 100.02965249 -2.0390625 97.1484375 C-2.91377197 96.47876953 -3.78848145 95.80910156 -4.68969727 95.11914062 C-6.47205062 93.75405792 -8.25379471 92.38817932 -10.03491211 91.02148438 C-14.42017647 87.67157927 -18.83308113 84.38036833 -23.33984375 81.1953125 C-24.17789551 80.60226318 -25.01594727 80.00921387 -25.87939453 79.39819336 C-27.4690544 78.2805186 -29.06487373 77.17153979 -30.66748047 76.07250977 C-31.37146973 75.57807373 -32.07545898 75.0836377 -32.80078125 74.57421875 C-33.42122314 74.14713623 -34.04166504 73.72005371 -34.6809082 73.2800293 C-35.33385864 72.64641479 -35.33385864 72.64641479 -36 72 C-36 71.01 -36 70.02 -36 69 C-34.9378125 68.63648438 -33.875625 68.27296875 -32.78125 67.8984375 C-25.03976231 65.17514013 -18.10434633 62.67345129 -12 57 C-11.40058594 56.50113281 -10.80117187 56.00226563 -10.18359375 55.48828125 C-3.29422795 49.34290744 2.37126356 39.01445908 3.20288086 29.73657227 C3.30525228 27.09150914 3.32754635 24.45948214 3.3125 21.8125 C3.31121094 20.88155518 3.30992187 19.95061035 3.30859375 18.99145508 C3.21537473 12.31872125 2.46212687 6.2579058 0 0 Z " fill="#F9C331" transform="translate(168,202)"/>
<path d="M0 0 C0.73982658 -0.00876451 1.47965315 -0.01752902 2.24189872 -0.02655911 C4.73432987 -0.05338205 7.22661951 -0.06570326 9.71916199 -0.07794189 C11.50130353 -0.09374115 13.28343867 -0.11027888 15.06556702 -0.12750244 C20.93335332 -0.1800087 26.8011685 -0.21057932 32.66911316 -0.23907471 C34.69022325 -0.24979426 36.71133314 -0.26054928 38.73244286 -0.27133942 C47.14526934 -0.31462017 55.55808809 -0.3520862 63.97099781 -0.3745842 C76.01629774 -0.40700826 88.06030154 -0.4731986 100.10511285 -0.58738589 C108.5783222 -0.66496138 117.05118635 -0.70387104 125.52474135 -0.71442533 C130.58220584 -0.7217131 135.63828911 -0.74553805 140.69536781 -0.8106308 C145.46231425 -0.87110358 150.22705573 -0.88331097 154.99430466 -0.85986328 C156.73532933 -0.85942423 158.47646075 -0.87583433 160.21712685 -0.91117096 C173.11355722 -1.15852393 179.43994122 1.42500041 188.89958191 10.30780029 C201.14236478 20.56716649 213.96483219 28.41057307 229.89958191 31.30780029 C229.89958191 31.63780029 229.89958191 31.96780029 229.89958191 32.30780029 C196.21855964 32.92794389 162.53897516 33.40262385 128.85349737 33.68656419 C124.8625833 33.7203269 120.87168044 33.75527422 116.88078308 33.79095459 C116.0863807 33.79803697 115.29197833 33.80511935 114.47350315 33.81241635 C101.66685896 33.92940716 88.8635398 34.14199223 76.05885806 34.39092579 C62.88638139 34.64484328 49.71562604 34.79367837 36.54080325 34.84818965 C29.15299084 34.8816876 21.77212316 34.96179267 14.38680077 35.16251183 C-35.96277943 36.49318573 -35.96277943 36.49318573 -49.96025318 24.31585652 C-55.89161025 18.65511269 -60.79784636 12.26766839 -65.10041809 5.30780029 C-64.44041809 4.97780029 -63.78041809 4.64780029 -63.10041809 4.30780029 C-60.99885559 5.23358154 -60.99885559 5.23358154 -58.47541809 6.62030029 C-48.2028209 11.89581383 -36.89834869 13.10584879 -25.56916809 10.21014404 C-16.73648007 6.98174067 -9.20172815 0.01313609 0 0 Z " fill="#F60B1F" transform="translate(107.10041809082031,425.69219970703125)"/>
<path d="M0 0 C10.92706784 7.42017141 19.06105845 18.18934811 21.8984375 31.23828125 C23.26864689 46.04174603 21.48339857 58.85293997 12.6171875 71.1796875 C4.34587498 81.08646409 -7.16799221 87.94492422 -20.1015625 89.23828125 C-34.60792697 90.14492903 -47.77093623 85.74572586 -59.0390625 76.55078125 C-66.74361888 69.16186777 -72.97038687 58.05688277 -73.53515625 47.25 C-73.55877112 45.47541706 -73.5594365 43.70040436 -73.5390625 41.92578125 C-73.53076416 40.99588379 -73.52246582 40.06598633 -73.51391602 39.10791016 C-73.34299362 32.16274324 -72.47803269 26.40183778 -69.1015625 20.23828125 C-68.60398437 19.30886719 -68.10640625 18.37945312 -67.59375 17.421875 C-60.60237292 5.4714979 -50.76337625 -1.53000863 -37.703125 -5.8984375 C-24.5742658 -9.04537664 -11.652181 -6.61855621 0 0 Z " fill="#D6DAE3" transform="translate(374.1015625,344.76171875)"/>
<path d="M0 0 C8.93548032 7.40064441 16.47763717 18.48875696 17.77001953 30.24462891 C18.81488285 45.05941513 16.19502145 57.54935759 6.546875 69.21484375 C-2.36880414 79.27355868 -14.0400716 85.52768794 -27.53125 86.41796875 C-41.17914092 86.61966172 -53.65155202 82.38220917 -63.8359375 72.953125 C-74.12083967 61.8980973 -78.22472005 49.86606398 -78.04492188 34.96264648 C-77.45969082 20.76437649 -71.33247533 10.61744274 -61.140625 0.96484375 C-43.36877303 -14.20772374 -18.3961312 -13.38699356 0 0 Z " fill="#D7D9E3" transform="translate(99.453125,351.78515625)"/>
<path d="M0 0 C0.88099365 0.01087646 1.7619873 0.02175293 2.66967773 0.03295898 C15.88721192 0.35748845 25.76490504 5.14103369 35.4375 14.25 C39.19760049 18.24031072 41.72455014 22.44117698 44.0625 27.375 C44.45566406 28.08785156 44.84882813 28.80070312 45.25390625 29.53515625 C50.124651 39.42938688 49.36440785 51.98324732 46.4375 62.375 C41.77440792 75.33709162 34.22365032 84.91942484 21.8203125 91.12109375 C20.91023438 91.53488281 20.00015625 91.94867188 19.0625 92.375 C17.94488281 92.88740234 17.94488281 92.88740234 16.8046875 93.41015625 C5.38784024 97.68650148 -9.17747883 96.88024722 -20.14453125 91.91796875 C-32.28994816 85.20826291 -40.75675975 75.21032879 -45.9375 62.375 C-49.04690152 51.4162556 -48.47971295 36.31838205 -42.9375 26.375 C-35.59084261 14.11844782 -26.13997042 5.37434702 -12.38183594 0.97265625 C-8.2543326 -0.03654553 -4.230512 -0.07108398 0 0 Z " fill="#D6DAE3" transform="translate(267.9375,75.625)"/>
<path d="M0 0 C11.08565538 7.10618935 18.58862318 17.44851626 21.75 30.25 C22.18873898 33.67863892 22.27481116 37.04584088 22.25 40.5 C22.24500488 41.4180542 22.24000977 42.3361084 22.23486328 43.28198242 C21.94704556 54.56939946 18.34380486 63.79039316 10.75 72.25 C10.17636719 72.92675781 9.60273438 73.60351562 9.01171875 74.30078125 C1.73688908 82.29857535 -9.08525545 88.02785631 -19.97265625 88.62109375 C-35.1345379 88.97109233 -46.78778652 87.03796563 -58.25 76.25 C-67.7102709 67.18462244 -73.34244753 55.70829563 -73.68115234 42.48779297 C-73.70499226 33.3791117 -72.88379014 26.32533189 -68.25 18.25 C-67.81558594 17.45464844 -67.38117188 16.65929687 -66.93359375 15.83984375 C-61.16577032 6.25966978 -52.5643914 -0.60760732 -42.25 -4.75 C-40.90035156 -5.29720703 -40.90035156 -5.29720703 -39.5234375 -5.85546875 C-26.04734625 -9.53807602 -11.96773695 -6.62661381 0 0 Z " fill="#D7DAE3" transform="translate(150.25,182.75)"/>
<path d="M0 0 C3.25 1.6875 3.25 1.6875 6.1875 3.5 C7.54875 4.3353125 7.54875 4.3353125 8.9375 5.1875 C18.05917814 11.63941868 25.46292441 22.5013745 27.8203125 33.46484375 C29.61601981 48.30808398 28.43597474 62.04255596 19.015625 74.29296875 C18.41234375 75.02128906 17.8090625 75.74960938 17.1875 76.5 C16.68734375 77.13550781 16.1871875 77.77101563 15.671875 78.42578125 C8.98627429 86.03993761 -2.86951319 91.58695806 -12.84082031 92.7331543 C-27.86242499 93.70334253 -40.12927534 90.39967921 -51.8125 80.5 C-60.76054278 72.33631159 -66.42970817 61.45740147 -67.0859375 49.3125 C-67.51786247 34.83774626 -65.03599954 23.36375911 -54.8125 12.5 C-40.78090342 -2.15342071 -19.19686252 -7.83588747 0 0 Z " fill="#D6DAE3" transform="translate(462.8125,84.5)"/>
<path d="M0 0 C4.49252117 -0.06162583 8.98088309 -0.14992514 13.47127724 -0.30358219 C49.03937197 -1.48925586 49.03937197 -1.48925586 61.16900063 9.24936581 C62.46992944 10.50033286 63.75059402 11.77284779 65.00625038 13.06925106 C67.495255 15.57130206 70.21169104 17.51313496 73.07918739 19.56922054 C74.7990916 20.87629693 76.5179024 22.18481375 78.23543739 23.49500179 C79.57155067 24.50723812 79.57155067 24.50723812 80.93465614 25.53992367 C81.78672646 26.18896664 82.63879677 26.83800961 83.51668739 27.50672054 C84.25983192 28.07221615 85.00297646 28.63771175 85.76864052 29.22034359 C87.5534596 30.66065005 89.13006663 32.17447001 90.73543739 33.80750179 C79.97340439 33.97024419 69.21166777 34.09434963 58.44865131 34.170187 C53.44997073 34.20659987 48.45213671 34.25592915 43.45394325 34.33557796 C38.62333705 34.41206768 33.79354106 34.45358176 28.96237564 34.47164249 C27.12642932 34.48450008 25.2905235 34.50960776 23.45492554 34.54761219 C6.04723384 34.89343645 6.04723384 34.89343645 -2.05989647 28.49782467 C-5.44463303 25.90273894 -9.1812896 24.85864138 -13.26456261 23.80750179 C-13.85108604 23.62445492 -14.43760948 23.44140804 -15.04190636 23.25281429 C-27.13517977 20.8299089 -39.43405473 22.99317411 -49.97159386 29.24109554 C-60.85316425 36.67467259 -68.07382745 45.968319 -71.26456261 58.80750179 C-71.70392002 62.23604071 -71.79000279 65.60336071 -71.76456261 69.05750179 C-71.75811729 69.97773129 -71.75167198 70.89796078 -71.74503136 71.84607601 C-71.40932814 84.42832111 -66.63241981 94.44120708 -58.26456261 103.80750179 C-56.01537945 105.66571366 -53.70540302 107.19654712 -51.26456261 108.80750179 C-50.98241905 109.39442806 -50.7002755 109.98135433 -50.40958214 110.58606625 C-48.78418062 113.73948382 -46.33315685 115.96481016 -43.81925011 118.41297054 C-43.28937492 118.93764416 -42.75949974 119.46231777 -42.21356773 120.00289059 C-40.52692893 121.6717663 -38.83373159 123.33377365 -37.13956261 124.99500179 C-35.439163 126.66782087 -33.74023204 128.34206727 -32.04413414 130.01924801 C-30.98961951 131.06146248 -29.93244433 132.10099284 -28.87244225 133.13762569 C-27.65105456 134.34218625 -26.45494043 135.57228738 -25.26456261 136.80750179 C-25.26456261 137.13750179 -25.26456261 137.46750179 -25.26456261 137.80750179 C-42.09465421 138.93577609 -57.86316079 133.53778494 -70.57706261 122.43250179 C-72.15700343 120.90871396 -73.7204379 119.36757271 -75.26456261 117.80750179 C-75.96194542 117.14363461 -76.65932823 116.47976742 -77.37784386 115.79578304 C-81.76812069 111.32025811 -84.75372744 106.47810585 -87.57706261 100.93250179 C-87.90271202 100.29691341 -88.22836143 99.66132504 -88.56387901 99.0064764 C-93.14417574 89.53743342 -94.7864027 80.34011978 -94.63956261 69.87000179 C-94.62868614 68.81313168 -94.61780968 67.75626156 -94.60660362 66.66736507 C-94.21316126 47.44659202 -86.58611274 31.70908716 -72.73721886 18.37390804 C-51.5667095 -0.06091141 -26.45920162 0.35629618 0 0 Z " fill="#FC445B" transform="translate(94.26456260681152,320.1924982070923)"/>
<path d="M0 0 C5.83799149 4.84796871 11.21110823 10.06088564 16.5625 15.4375 C17.7990332 16.66823242 17.7990332 16.66823242 19.06054688 17.92382812 C20.66219908 19.52804092 22.25084131 21.14537295 23.82470703 22.77685547 C25.1824081 24.16442292 26.57982564 25.51541606 28.03076172 26.80517578 C29.80243771 28.49661372 31.00605271 29.75895531 32 32 C31.72505147 35.63355052 30.42393107 38.67290623 29 42 C28.39845452 43.64228384 27.79946071 45.28550475 27.203125 46.9296875 C18.15845421 70.14218574 7.22382908 85.89783838 -16.11474609 96.20166016 C-27.40557974 100.98293781 -38.96250392 100.32986393 -51 100 C-51 99.67 -51 99.34 -51 99 C-46.38 98.67 -41.76 98.34 -37 98 C-37.9384375 97.15695312 -38.876875 96.31390625 -39.84375 95.4453125 C-41.06275923 94.3388272 -42.28149518 93.23204076 -43.5 92.125 C-44.43005859 91.29162109 -44.43005859 91.29162109 -45.37890625 90.44140625 C-45.96542969 89.90644531 -46.55195313 89.37148438 -47.15625 88.8203125 C-47.70087891 88.32805176 -48.24550781 87.83579102 -48.80664062 87.32861328 C-50 86 -50 86 -50 84 C-50.56589844 83.76152344 -51.13179688 83.52304687 -51.71484375 83.27734375 C-54.48709873 81.7277243 -56.35266293 79.83964175 -58.5625 77.5625 C-59.32691406 76.78003906 -60.09132813 75.99757813 -60.87890625 75.19140625 C-61.57886719 74.46824219 -62.27882813 73.74507813 -63 73 C-63.99780462 71.99780943 -64.99680002 70.99678975 -66 70 C-65.505 69.01 -65.505 69.01 -65 68 C-64.33355469 68.33773437 -63.66710937 68.67546875 -62.98046875 69.0234375 C-49.45972688 75.56634196 -36.84691034 76.60723231 -22.5625 72.2578125 C-12.73555971 68.78767421 -4.21906817 62.08677047 1 53 C6.7110818 40.81739344 10.04531653 27.31921126 5.953125 13.96484375 C4.75544293 10.8966641 3.44935784 7.9558116 2 5 C1.32077702 3.33841089 0.64987814 1.67328438 0 0 Z " fill="#6991DB" transform="translate(388,358)"/>
<path d="M0 0 C5.05987684 4.23957644 9.81354472 8.66611055 14.47265625 13.33984375 C15.15879501 14.02502579 15.84493378 14.71020782 16.55186462 15.41615295 C17.99259201 16.85620404 19.43207422 18.29750186 20.87036133 19.73999023 C23.05634027 21.93132518 25.24760586 24.11727089 27.43945312 26.30273438 C28.84667488 27.71061701 30.25358636 29.11880986 31.66015625 30.52734375 C32.30719009 31.17235336 32.95422394 31.81736298 33.62086487 32.48191833 C37.16322455 36.04235732 40.52794246 39.6846577 43.74488831 43.54263306 C45.31362061 45.36415907 47.02331152 46.90767154 48.875 48.4375 C53.11696214 52.05708932 57.34802843 55.7749797 61 60 C61 60.66 61 61.32 61 62 C97.3 62 133.6 62 171 62 C171 62.33 171 62.66 171 63 C111.6 63 52.2 63 -9 63 C-7.02 60.69 -5.04 58.38 -3 56 C5.32353172 44.50559906 7.92324617 30.96251411 6 17 C4.88083067 12.43672031 2.95032284 8.25873774 1 4 C0.64715539 2.67169673 0.31009219 1.33892932 0 0 Z " fill="#F0293C" transform="translate(110,363)"/>
<path d="M0 0 C2.31 1.98 4.62 3.96 7 6 C6.67 6.99 6.34 7.98 6 9 C5.34 9 4.68 9 4 9 C0 2.25 0 2.25 0 0 Z " fill="#5270BF" transform="translate(388,358)"/>
</svg>
